<svg width="142" height="40" viewBox="0 0 142 40" fill="none" xmlns="http://www.w3.org/2000/svg">
<g clip-path="url(#clip0_2009_5105)">
<path fill-rule="evenodd" clip-rule="evenodd" d="M91.7294 28.0383V21.2919C92.8851 21.1962 94.0407 21.1483 95.1482 21.1483C95.5816 22.5359 96.7854 23.5407 98.2781 23.5407C100.06 23.5407 101.552 22.0096 101.552 20.1435C101.552 18.2775 100.108 16.7464 98.2781 16.7464C96.978 16.7464 95.8223 17.5598 95.2927 18.756C94.0889 18.756 92.8851 18.8038 91.6813 18.8995V12.3445L100.638 0.287079H142V40H100.638L91.7776 28.0383H91.7294Z" fill="#FFED00"/>
<path d="M123.124 26.89C124.136 27.1292 125.051 27.4641 125.821 27.9426C126.591 28.3732 127.266 28.8995 127.747 29.4258C128.277 29.9522 128.71 30.5263 128.999 31.1005C129.288 31.6746 129.529 32.1531 129.625 32.5837C129.769 33.0144 129.818 33.3493 129.769 33.5885C129.769 33.8278 129.673 33.8756 129.529 33.7799C129.384 33.6842 129.143 33.4928 128.855 33.2536C128.566 33.0144 128.132 32.7751 127.603 32.5359C127.073 32.2967 126.399 32.1531 125.58 32.0096C124.762 31.866 123.847 31.866 122.787 32.0096C121.728 32.1531 120.476 32.3923 119.032 32.8708C117.635 33.3014 116.046 33.9713 114.216 34.8804C113.783 34.8325 113.301 34.6412 112.772 34.2584C112.242 33.8756 111.712 33.445 111.231 32.9665C110.749 32.4402 110.364 31.866 109.979 31.244C109.642 30.622 109.449 30.0478 109.449 29.4737C109.449 29.378 109.449 29.2823 109.449 29.1388C109.594 28.6124 109.979 28.1818 110.653 27.8469C111.183 27.2249 111.809 26.4115 112.531 25.4067C113.253 24.4019 114.024 23.3493 114.842 22.201C115.661 21.0526 116.431 19.9043 117.25 18.7081C118.02 17.512 118.743 16.4115 119.369 15.3589C119.995 14.3062 120.524 13.3971 120.909 12.6316C121.295 11.866 121.487 11.2919 121.487 10.9569C121.15 10.8612 120.717 10.9569 120.187 11.244C119.658 11.5311 119.128 11.9139 118.55 12.3445C117.972 12.823 117.346 13.3014 116.768 13.8756C116.142 14.4498 115.565 14.9761 115.035 15.4067C114.505 15.8852 114.024 16.2679 113.639 16.6029C113.253 16.9378 112.964 17.0335 112.772 16.9856C112.531 16.9378 112.29 16.7943 112.001 16.555C111.712 16.3158 111.375 16.0287 111.086 15.7416C110.798 15.4067 110.557 15.0718 110.316 14.7368C110.123 14.4019 110.027 14.067 110.027 13.7321C110.027 13.3971 110.22 12.8708 110.653 12.2488C111.038 11.6746 111.568 11.0526 112.194 10.3828C112.82 9.76077 113.542 9.09091 114.313 8.4689C115.083 7.84689 115.902 7.27273 116.672 6.79426C117.443 6.31579 118.165 5.93302 118.839 5.69378C119.513 5.45455 120.091 5.35885 120.524 5.45455C121.15 5.59809 121.824 5.88517 122.498 6.26794C123.173 6.65072 123.799 7.17704 124.376 7.84689C124.954 8.4689 125.436 9.23445 125.773 10.0957C126.11 10.9569 126.302 11.9139 126.254 13.0144C126.254 13.6364 126.014 14.4498 125.532 15.5024C125.051 16.555 124.425 17.7034 123.702 18.9474C122.932 20.1914 122.113 21.4833 121.15 22.7751C120.187 24.067 119.224 25.311 118.261 26.4115C119.224 26.4115 120.091 26.4115 120.958 26.5072C121.776 26.555 122.45 26.6507 122.98 26.7943" fill="#2B2A29"/>
<path d="M87.2031 12.6316C87.2031 12.7751 87.2031 12.9187 87.2031 13.11C87.2031 13.3014 87.1068 13.4928 87.0587 13.6842C87.0105 13.8756 86.9142 14.067 86.8661 14.2584C86.7698 14.4498 86.6735 14.5933 86.5772 14.689C86.2882 15.0239 85.566 15.2153 84.4585 15.2153C84.4585 14.8325 84.4585 14.4976 84.4585 14.1627C84.4585 13.8756 84.3622 13.6364 84.314 13.445C84.2659 13.3014 84.1214 13.1579 83.977 13.0622C83.8325 12.9665 83.6399 12.8708 83.3991 12.823C83.2065 12.7751 82.9658 12.7273 82.7732 12.6794C82.5805 12.6794 82.3879 12.6794 82.1953 12.6794C81.8101 12.6794 81.4249 12.6794 81.0397 12.6794C80.6545 12.6794 80.2693 12.7273 79.9322 12.7751C79.547 12.823 79.2099 12.9187 78.8247 13.0144C78.4395 13.11 78.0543 13.2536 77.6691 13.3971C77.3801 13.4928 77.0912 13.6364 76.8023 13.8277C76.5134 13.9713 76.2245 14.1627 75.9356 14.4019C75.6467 14.5933 75.4541 14.8325 75.2615 15.0718C75.0688 15.311 74.9725 15.5981 74.9244 15.8373C74.9244 16.0287 75.0207 16.2679 75.1652 16.555C75.3096 16.8421 75.5022 17.0813 75.743 17.3684C75.9837 17.6555 76.2726 17.8947 76.6097 18.0861C76.9468 18.3254 77.2838 18.4689 77.6691 18.5646C77.6691 18.5646 77.7654 18.5646 77.9098 18.6603C78.0543 18.6603 78.1987 18.756 78.3913 18.8038C78.5839 18.8517 78.7765 18.9474 78.9692 18.9952C79.1618 19.0909 79.3544 19.1388 79.547 19.1866C79.7396 19.2344 79.884 19.2823 80.0285 19.3301C80.1729 19.3301 80.2211 19.378 80.2211 19.4258C82.3879 19.9522 83.977 20.622 84.9881 21.3876C86.0475 22.1531 86.529 23.0622 86.529 24.2105C86.529 25.3588 86.4327 24.9282 86.2882 25.2632C86.1438 25.5981 85.9512 25.933 85.7104 26.2679C85.4697 26.6029 85.2289 26.89 84.94 27.177C84.6511 27.4641 84.4103 27.6555 84.1214 27.8469C83.8325 28.0383 83.5436 28.2775 83.2065 28.4689C82.8695 28.7081 82.4842 28.8995 82.099 29.1388C81.7138 29.3301 81.3286 29.5694 80.8952 29.7129C80.4619 29.9043 80.0766 30.0478 79.6433 30.1914C79.2581 30.3349 78.8247 30.4306 78.3432 30.5742C77.9098 30.6699 77.4283 30.7655 76.9949 30.8612C76.5616 30.9569 76.1282 31.0048 75.6948 31.0526C75.2615 31.0526 74.9244 31.1005 74.5873 31.1005C74.2503 31.1005 74.2021 31.1005 73.9614 31.0526C73.7206 31.0526 73.4317 30.9569 73.1428 30.8612C72.8539 30.7655 72.5649 30.7177 72.3242 30.5742C72.0353 30.4785 71.7945 30.3349 71.5538 30.2392C71.313 30.0957 71.1685 29.9522 71.0241 29.8086C70.8796 29.6651 70.8315 29.5215 70.8315 29.3301C70.8315 29.1388 70.8315 28.9952 70.9278 28.8038C70.9759 28.6124 71.0722 28.3732 71.1685 28.1818C71.2648 27.9904 71.4093 27.799 71.5538 27.6555C71.6982 27.512 71.8427 27.4641 72.0353 27.4641C72.2279 27.4641 72.4686 27.4641 72.6612 27.5598C72.8539 27.6077 73.0946 27.6555 73.3354 27.7512C73.5761 27.799 73.9132 27.8947 74.2021 27.9426C74.5392 27.9904 74.9725 28.0383 75.4541 28.0383C75.9356 28.0383 76.4653 27.9904 76.9949 27.8947C77.5246 27.799 78.0543 27.6555 78.5839 27.4641C79.1136 27.2727 79.5951 27.0813 80.0766 26.8421C80.5582 26.6029 80.9915 26.3636 81.3767 26.1244C81.5212 26.0287 81.7138 25.8852 81.9064 25.7416C82.099 25.5981 82.2916 25.4545 82.4842 25.2632C82.6769 25.0718 82.7732 24.9282 82.9176 24.7368C83.0139 24.5455 83.1102 24.3541 83.1102 24.1627C83.1102 23.9713 82.9658 23.7321 82.6287 23.5407C82.1472 23.2536 81.6657 23.0144 81.1841 22.8708C80.7026 22.7273 80.2693 22.5837 79.9322 22.488C78.921 22.2488 77.6691 21.8182 76.2245 21.244C75.5985 21.0048 75.0207 20.7177 74.4429 20.3349C73.8651 19.9522 73.3835 19.5694 72.9502 19.1388C72.0353 18.134 71.5538 16.9378 71.5538 15.5981C71.5538 14.2584 71.6982 14.5455 71.9871 14.067C72.276 13.5885 72.6613 13.11 73.1909 12.6794C73.7206 12.2488 74.2984 11.8182 74.9725 11.4833C75.6467 11.1005 76.3689 10.8134 77.1394 10.5263C77.9098 10.2392 78.6802 10.0478 79.4507 9.9043C80.2211 9.76076 80.9915 9.66507 81.762 9.66507C82.5324 9.66507 82.2916 9.66507 82.6287 9.71292C82.9658 9.71292 83.351 9.80861 83.688 9.85646C84.0733 9.9043 84.4103 10 84.7474 10.0957C85.0844 10.1914 85.3252 10.2871 85.5178 10.3828C86.0475 10.6699 86.4809 11.0048 86.7698 11.3876C87.0587 11.7703 87.2513 12.1531 87.2513 12.5359" fill="#2B2A29"/>
<path d="M68.135 23.2536C67.9424 24.2584 67.5572 25.1675 66.9793 26.0287C66.4015 26.89 65.7274 27.6077 64.8607 28.1818C63.9939 28.8038 63.0309 29.2823 61.9715 29.6172C60.8641 29.9522 59.7084 30.1435 58.5046 30.1435C57.3008 30.1435 57.6379 30.0957 57.1564 29.9522C56.6748 29.8565 56.1933 29.6651 55.76 29.5215C55.2784 29.3301 54.8932 29.1388 54.508 28.9474C54.1228 28.7081 53.7857 28.5167 53.545 28.2775C53.0634 27.8469 52.6782 27.3206 52.3412 26.7943C52.0041 26.2679 51.7152 25.6459 51.5226 25.0718C51.33 24.4498 51.1374 23.8278 51.0411 23.2057C50.9448 22.5837 50.8966 21.9617 50.8966 21.3397C50.8966 20.7177 50.8966 20.6699 50.9448 20.2871C50.9448 19.9043 51.0411 19.5215 51.0892 19.0909C51.1374 18.6603 51.2337 18.2775 51.2818 17.8469C51.3781 17.4163 51.4263 17.0335 51.4744 16.6986C51.5707 16.2201 51.667 15.7416 51.7152 15.311C51.7633 14.8804 51.8596 14.4498 51.9078 14.0191C52.0041 13.3971 52.1486 12.7751 52.1967 12.1053C52.293 11.4833 52.4375 10.9091 52.5819 10.4306C52.7745 9.95215 53.0153 9.52153 53.3042 9.23445C53.5931 8.94737 54.0265 8.75598 54.508 8.75598C54.9895 8.75598 54.8932 8.85168 55.0377 8.99522C55.2303 9.13876 55.3747 9.33014 55.5192 9.56938C55.6636 9.80861 55.76 10 55.8563 10.2392C55.9526 10.4785 56.0007 10.622 56.0007 10.7656C56.0007 10.9091 56.0007 10.9569 55.9526 11.1483C55.9526 11.3397 55.8563 11.5789 55.8081 11.8182C55.76 12.0574 55.6636 12.3445 55.5673 12.6316C55.471 12.9187 55.4229 13.2057 55.3266 13.445C55.2784 13.6842 55.1821 13.9234 55.134 14.1148C55.0858 14.3062 55.0377 14.4498 55.0377 14.4976C55.0377 14.689 54.9414 14.9761 54.8932 15.311C54.8451 15.6459 54.7969 16.0287 54.7006 16.4593C54.6525 16.89 54.5562 17.3206 54.508 17.7512C54.4598 18.2297 54.3635 18.6603 54.3154 19.0909C54.2672 19.5215 54.2191 19.9043 54.1709 20.2871C54.1709 20.6699 54.1228 20.9569 54.1228 21.1962C54.1228 22.5359 54.3635 23.7799 54.7969 24.8804C54.8932 25.1675 55.0858 25.4067 55.3747 25.6938C55.6636 25.9809 55.9526 26.2201 56.2896 26.4115C56.6267 26.6507 56.9637 26.7943 57.349 26.9378C57.686 27.0813 57.9749 27.1292 58.2639 27.1292C59.6603 27.1292 60.8159 26.9378 61.7308 26.555C62.6457 26.1722 63.368 25.5024 63.8495 24.6411C64.0902 24.2105 64.2347 23.7799 64.3791 23.3493C64.5236 22.9187 64.6199 22.488 64.6681 22.0574C64.7162 21.6268 64.8125 21.1962 64.8607 20.7656C64.8607 20.3349 64.957 19.9522 65.0051 19.5694C65.1014 18.6124 65.1977 17.7512 65.2459 16.89C65.294 16.0287 65.3903 15.2153 65.4385 14.4976C65.4866 13.7321 65.5829 13.0622 65.7274 12.488C65.8237 11.866 65.9682 11.3876 66.1608 10.9569C66.3534 10.5263 66.5941 10.1914 66.883 9.95215C67.172 9.71292 67.5572 9.61723 67.9905 9.61723C68.4239 9.61723 68.5202 9.61723 68.6647 9.76077C68.8573 9.85646 69.0017 10 69.098 10.1435C69.1943 10.3349 69.2906 10.5263 69.3388 10.7177C69.3388 10.9569 69.3869 11.1962 69.3869 11.4354C69.3869 11.6746 69.3869 12.201 69.2906 12.6316C69.2425 13.11 69.1462 13.5885 69.098 14.067C69.0017 14.5455 68.9536 15.0239 68.8573 15.5024C68.761 15.9809 68.7128 16.3636 68.6647 16.6507C68.6647 16.9378 68.5684 17.3206 68.5202 17.7034C68.5202 18.134 68.4721 18.5646 68.4239 18.9952C68.4239 19.6172 68.3276 20.2392 68.2313 20.9569C68.135 21.6746 68.0387 22.3923 67.8942 23.2057" fill="#2B2A29"/>
<path d="M47.5741 12.2488C47.5741 12.3923 47.5741 12.5837 47.4778 12.9187C47.4296 13.2536 47.2852 13.6364 47.0926 14.1148C46.9481 14.4976 46.8037 14.8325 46.7074 15.1196C46.6111 15.4067 46.5629 15.5981 46.5629 15.7416C46.4185 16.7943 46.2258 17.8947 46.0814 19.0909C45.9369 20.2871 45.7443 21.5789 45.5517 23.0144C45.5517 23.3971 45.4554 23.8278 45.4073 24.2105C45.3591 24.6411 45.311 25.0239 45.2628 25.4067C45.2628 25.7895 45.2147 26.0766 45.1665 26.3636C45.1665 26.6507 45.1665 26.8421 45.1665 26.9378C45.1665 27.0335 45.1665 27.0813 45.2147 27.2249C45.2147 27.3206 45.311 27.4163 45.3591 27.5598C45.3591 27.6555 45.4554 27.799 45.5036 27.8947C45.5036 27.9904 45.5517 28.0861 45.5517 28.134C45.5517 28.3254 45.5036 28.5646 45.3591 28.756C45.2147 28.9474 45.0221 29.1866 44.7331 29.378C44.4924 29.5694 44.2516 29.6651 44.0109 29.7608C43.7701 29.8565 43.5293 29.9043 43.2886 29.9043C42.8552 29.9043 42.5182 29.8086 42.2774 29.5694C42.0366 29.3301 41.844 29.0909 41.7477 28.8038C41.6514 28.5167 41.5551 28.1818 41.5551 27.8469C41.5551 27.512 41.5551 27.2249 41.5551 27.0335C41.5551 26.6029 41.5551 26.1723 41.5551 25.7895C41.5551 25.4067 41.6033 24.9761 41.6514 24.5933C41.7477 23.9713 41.844 23.2536 41.9885 22.3923C42.1329 21.5789 42.2774 20.6699 42.4218 19.7129C42.4218 19.5694 42.47 19.3301 42.5663 18.9952C42.6145 18.6603 42.7108 18.3254 42.7589 17.8947C42.8552 17.4641 42.9034 17.0335 42.9997 16.555C43.096 16.0766 43.1923 15.6459 43.2404 15.2153C43.3367 14.7847 43.3849 14.4019 43.4812 14.067C43.5293 13.7321 43.5775 13.4928 43.6256 13.3014C43.6738 13.0144 43.722 12.7751 43.7701 12.5837C43.7701 12.4402 43.8183 12.2488 43.8664 12.1053C43.8664 11.9617 43.9146 11.8182 43.9627 11.6268C43.9627 11.4354 44.059 11.1962 44.1072 10.9091C44.1072 10.7655 44.2035 10.622 44.2516 10.4306C44.3479 10.2392 44.4442 10.0957 44.5887 9.90431C44.7331 9.76077 44.8776 9.61722 45.0702 9.52153C45.2628 9.42584 45.4073 9.37799 45.5999 9.37799C45.9851 9.37799 46.3222 9.47368 46.5629 9.66507C46.8518 9.85646 47.0444 10.0478 47.1889 10.3349C47.3333 10.5742 47.4778 10.8612 47.5259 11.1483C47.5741 11.4354 47.6223 11.6746 47.6223 11.9139V12.1053L47.5741 12.2488Z" fill="#2B2A29"/>
<path fill-rule="evenodd" clip-rule="evenodd" d="M98.2299 22.2488C96.3038 22.1053 94.4259 22.0096 92.4998 22.1053C90.0922 22.201 87.5402 22.4402 85.2289 23.1579C83.2547 23.7799 81.136 24.8325 79.4988 26.0766C79.0173 26.4593 78.6321 26.7464 78.3432 27.1292H77.3801V24.2105C77.5246 24.1148 77.669 23.9713 77.8616 23.8756C79.7877 22.4402 82.1953 21.244 84.4585 20.5742C87.0105 19.7608 89.8033 19.4737 92.4517 19.378C94.4741 19.3301 96.4483 19.378 98.4707 19.5215L99.8671 19.6172L99.6745 22.3923L98.2781 22.2966L98.2299 22.2488Z" fill="#FEFEFE"/>
<path d="M36.7399 27.6555C36.6436 27.799 36.4991 27.8947 36.3547 27.9904C36.2102 28.0861 36.0658 28.1818 35.8732 28.2297C35.6806 28.2775 35.5361 28.3254 35.3435 28.3732C35.1509 28.3732 35.0064 28.3732 34.862 28.3732H32.7915C32.3581 28.3732 31.8766 28.3732 31.395 28.4689C30.8654 28.5646 30.3357 28.6603 29.8542 28.756C29.3245 28.8517 28.7948 28.9952 28.2652 29.1388C27.7355 29.2823 27.254 29.4258 26.8206 29.5215C26.0502 29.7129 25.3761 29.9043 24.7019 30.0957C24.0278 30.2392 23.4981 30.3349 23.0166 30.3349C22.5351 30.3349 22.2462 30.2871 21.9573 30.1914C21.6684 30.0957 21.4276 29.9522 21.235 29.7608C21.0424 29.5694 20.9461 29.378 20.8498 29.1388C20.7535 28.8995 20.7053 28.6603 20.7053 28.4211C20.7053 27.9426 20.7535 27.4163 20.8498 26.7464C20.9461 26.0766 21.0905 25.4067 21.235 24.689C21.235 24.4976 21.3313 24.689 21.4276 24.1148C21.5239 23.5407 21.6202 22.9187 21.7647 22.201C21.9091 21.4833 22.0054 20.6699 22.1499 19.8565C22.2943 19.0431 22.3906 18.2297 22.5351 17.4641C22.6314 16.6986 22.7759 16.0287 22.824 15.4545C22.9203 14.8804 22.9685 14.4498 22.9685 14.2105C22.9685 13.7799 23.0648 13.3493 23.0648 12.9187C23.0648 12.5359 23.1129 12.1531 23.1611 11.8182C23.1611 11.4833 23.2574 11.1962 23.3537 10.9091C23.45 10.622 23.5463 10.4306 23.6907 10.2392C23.8352 10.0478 24.0278 9.9043 24.3167 9.80861C24.5575 9.71292 24.8945 9.66507 25.2798 9.66507C25.665 9.66507 25.9057 9.71292 26.1465 9.85646C26.3872 9.95215 26.5317 10.1435 26.6762 10.3349C26.8206 10.5263 26.9169 10.7655 26.9651 11.0048C27.0132 11.244 27.0614 11.4833 27.0614 11.7225C27.0614 11.9617 27.0614 12.0096 26.9651 12.3445C26.9169 12.6794 26.8206 13.11 26.7243 13.5885C26.628 14.067 26.5317 14.6411 26.4354 15.2153C26.3391 15.8373 26.1946 16.4115 26.0983 17.0335C26.002 17.6555 25.8576 18.2775 25.7613 18.8517C25.665 19.4258 25.5687 20 25.4724 20.4785C25.3761 20.9091 25.2798 21.3876 25.1834 21.9139C25.0871 22.4402 24.9427 22.9665 24.8945 23.4928C24.8464 23.8756 24.7501 23.7321 24.7019 24.1148C24.6538 24.4976 24.5575 24.8804 24.5093 25.2153C24.4612 25.5502 24.413 25.8852 24.3649 26.1722C24.3649 26.4593 24.3649 26.6986 24.3649 26.8899C24.3649 27.0813 24.3649 27.0813 24.3649 27.177C24.3649 27.2727 24.413 27.3206 24.4612 27.3206C24.6538 27.3206 24.8945 27.3206 25.2316 27.2249C25.5687 27.177 25.9057 27.0813 26.2428 26.9856C26.628 26.89 27.0132 26.7943 27.3984 26.6986C27.7837 26.6029 28.1689 26.4593 28.5059 26.3636C28.6022 26.3636 28.7467 26.3158 28.9875 26.2679C29.2282 26.2201 29.469 26.1722 29.806 26.0766C30.0949 26.0287 30.432 25.933 30.7691 25.8852C31.1061 25.8373 31.4432 25.7416 31.7321 25.6938C32.021 25.6459 32.3099 25.5981 32.5507 25.5502C32.7915 25.5502 32.9359 25.5502 33.0322 25.5502C33.1285 25.5502 33.4174 25.5502 33.7545 25.5024C34.0916 25.5024 34.4768 25.4545 34.9583 25.4545C35.6806 25.4545 36.2584 25.5502 36.5473 25.7416C36.8844 25.933 37.0288 26.2201 37.0288 26.6986C37.0288 27.177 37.0288 27.0813 36.9325 27.2727C36.8844 27.4641 36.7881 27.6077 36.6436 27.799" fill="#2B2A29"/>
<path d="M11.2675 11.9617C10.5453 11.9617 9.72667 11.9617 8.85994 12.1053C7.9932 12.201 7.12647 12.2967 6.30789 12.4402C6.5968 12.7273 6.74125 13.0622 6.74125 13.5407C6.74125 14.0191 6.74125 13.7321 6.64495 13.9713C6.5968 14.2105 6.50049 14.4498 6.40419 14.7368C6.30789 15.0239 6.25973 15.2632 6.16343 15.5024C6.06713 15.7416 6.01898 15.8852 6.01898 15.933C6.01898 16.0287 5.92267 16.2201 5.87452 16.3636C5.87452 16.555 5.77822 16.7464 5.73006 16.9378C5.73006 17.1292 5.63376 17.3684 5.63376 17.6077C5.63376 17.8469 5.58561 18.0383 5.53746 18.2775C5.4893 18.5646 5.44115 18.8038 5.393 19.0431C5.393 19.2823 5.34485 19.4737 5.2967 19.6172C5.2967 19.8086 5.2967 19.9522 5.2967 20.0957C5.2967 20.2392 5.2967 20.4306 5.2967 20.5742C5.58561 20.4306 5.97082 20.2871 6.35604 20.1435C6.74125 20 7.12647 19.8086 7.55984 19.6651C7.94505 19.4737 8.37842 19.3302 8.71548 19.1388C9.1007 18.9474 9.43776 18.8038 9.72667 18.6603C9.87113 18.5646 10.0637 18.4689 10.2563 18.3732C10.449 18.2775 10.6416 18.1818 10.8823 18.0383C11.0749 17.9426 11.3157 17.7991 11.5083 17.7034C11.7009 17.6077 11.8935 17.4641 12.0861 17.3684C12.5195 17.0813 13.001 16.7943 13.4825 16.4115C13.964 16.0287 14.3974 15.6459 14.7826 15.2632C15.1678 14.8325 15.5049 14.4498 15.7457 14.0191C15.9864 13.5885 16.1309 13.2057 16.1309 12.823C16.1309 12.4402 15.8901 12.488 15.4086 12.3445C14.7345 12.1531 14.0122 12.0574 13.2899 12.0096C12.5676 11.9617 11.8935 11.9139 11.3638 11.9139M19.2126 13.0622C19.2126 13.2057 19.2126 13.3971 19.1163 13.6842C19.02 13.9713 18.9237 14.2105 18.8274 14.5455C18.7311 14.8325 18.5866 15.1196 18.4422 15.4067C18.2977 15.6938 18.1533 15.933 18.057 16.1244C17.768 16.555 17.3347 17.0335 16.7569 17.512C16.179 17.9904 15.5531 18.5168 14.7826 18.9952C14.1085 19.4737 13.3862 19.9043 12.6158 20.3349C11.8935 20.7656 11.1231 21.1483 10.4008 21.5311C9.53406 21.9617 8.61918 22.3924 7.70429 22.7751C6.78941 23.1579 5.87452 23.4928 4.95963 23.7799V24.4498C4.95963 24.5455 4.95963 24.7368 4.95963 25.0239C4.95963 25.311 4.95963 25.5981 5.00778 25.933C5.00778 26.268 5.00778 25.5502 5.05594 25.933C5.05594 26.3158 5.05594 26.6986 5.10409 27.0813C5.10409 27.4641 5.10409 27.7991 5.15224 28.134C5.15224 28.4689 5.15224 28.7081 5.15224 28.8995C5.15224 29.378 5.00779 29.7129 4.71887 30C4.42996 30.2871 3.99659 30.3828 3.51508 30.3828C2.16682 30.3828 1.54085 29.2345 1.54085 24.7368C1.54085 20.2392 1.54085 23.9235 1.54085 23.5407C1.54085 23.1579 1.589 22.7273 1.63715 22.2488C1.6853 21.7703 1.73345 21.2919 1.82976 20.7656C1.87791 20.2392 1.97421 19.6172 2.11867 18.9952C2.21497 18.4689 2.26313 17.8947 2.35943 17.4163C2.45573 16.89 2.55204 16.4115 2.64834 15.933C2.74464 15.4546 2.8891 14.9761 3.03356 14.4976C3.17801 14.0191 3.37062 13.5407 3.56323 13.0622C3.27432 13.1579 2.9854 13.2536 2.64834 13.3493C2.35943 13.445 2.02237 13.5885 1.6853 13.6842C1.589 13.6842 1.49269 13.7799 1.39639 13.7799C1.30009 13.7799 1.20378 13.7799 1.05933 13.7799C0.722264 13.7799 0.433353 13.6842 0.192593 13.4928C-0.0481664 13.3014 -0.14447 13.0622 -0.14447 12.7273C-0.14447 12.3924 -0.0481664 12.0096 0.0962894 11.7225C0.240745 11.4354 0.481505 11.1962 0.86672 10.9569C1.20378 10.7177 1.63715 10.5263 2.21497 10.3828C2.74464 10.1914 3.41877 10.0479 4.1892 9.90431C4.62257 9.80862 5.10409 9.71293 5.63376 9.61723C6.16343 9.52154 6.6931 9.47369 7.22277 9.378C7.75244 9.33015 8.28212 9.23446 8.76363 9.18661C9.24515 9.18661 9.72667 9.13876 10.1119 9.13876C10.4971 9.13876 11.0749 9.13876 11.5083 9.13876C11.9898 9.13876 12.4232 9.13876 12.8565 9.18661C13.2899 9.18661 13.7233 9.2823 14.2048 9.33015C14.6382 9.378 15.0715 9.47369 15.5531 9.56939C16.5642 9.80862 17.3828 10.1914 18.0088 10.6699C18.7311 11.244 19.1163 11.9617 19.1163 12.8708L19.2126 13.0622Z" fill="#2B2A29"/>
</g>
<defs>
<clipPath id="clip0_2009_5105">
<rect width="142" height="40" fill="white"/>
</clipPath>
</defs>
</svg>
