<svg width="16" height="13" viewBox="0 0 16 13" fill="none" xmlns="http://www.w3.org/2000/svg">
<path d="M9.33716 8.30279C8.93909 8.56817 8.47672 8.70845 8 8.70845C7.52331 8.70845 7.06094 8.56817 6.66288 8.30279L0.106531 3.93176C0.0703376 3.90756 0.0348139 3.88238 0 3.85623L0 11.0186C0 11.8398 0.666406 12.4915 1.47291 12.4915H14.5271C15.3482 12.4915 16 11.8251 16 11.0186V3.8562C15.9651 3.88242 15.9295 3.90766 15.8932 3.93189L9.33716 8.30279Z" fill="#999999"/>
<path d="M0.626563 3.1518L7.18291 7.52286C7.43109 7.68833 7.71553 7.77105 7.99997 7.77105C8.28444 7.77105 8.56891 7.6883 8.81709 7.52286L15.3734 3.1518C15.7658 2.89039 16 2.45289 16 1.98071C16 1.1688 15.3395 0.508301 14.5276 0.508301H1.47241C0.660532 0.508332 7.75033e-07 1.16883 7.75033e-07 1.98149C-0.000242619 2.21312 0.0568447 2.4412 0.166171 2.64541C0.275497 2.84961 0.433664 3.02358 0.626563 3.1518Z" fill="#999999"/>
</svg>
