<svg width="14" height="17" viewBox="0 0 14 17" fill="none" xmlns="http://www.w3.org/2000/svg">
<path d="M7 0.5C3.672 0.5 0.96463 3.20737 0.96463 6.53495C0.96463 11.3261 6.35242 16.1392 6.58189 16.3421C6.69969 16.4457 6.8518 16.5018 7.00867 16.4996C7.16554 16.4973 7.31596 16.4369 7.43074 16.3299C7.65937 16.116 13.0354 11.0381 13.0354 6.53537C13.0354 3.20779 10.3272 0.5 7 0.5ZM7 9.41284C6.24548 9.39993 5.52623 9.09114 4.99721 8.55299C4.46819 8.01484 4.17175 7.29042 4.17175 6.53579C4.17175 5.78116 4.46819 5.05673 4.99721 4.51859C5.52623 3.98044 6.24548 3.67165 7 3.65874C7.76304 3.65874 8.49483 3.96185 9.03438 4.50141C9.57393 5.04096 9.87705 5.77275 9.87705 6.53579C9.87705 7.29883 9.57393 8.03062 9.03438 8.57017C8.49483 9.10972 7.76304 9.41284 7 9.41284Z" fill="#999999"/>
</svg>
