<svg width="20" height="20" viewBox="0 0 20 20" fill="none" xmlns="http://www.w3.org/2000/svg">
<path d="M19.8102 18.9119L14.6466 13.8308C15.9988 12.3617 16.8296 10.4187 16.8296 8.28071C16.8289 3.70713 13.0618 3.05176e-05 8.41447 3.05176e-05C3.76713 3.05176e-05 0 3.70713 0 8.28071C0 12.8543 3.76713 16.5614 8.41447 16.5614C10.4224 16.5614 12.2641 15.8669 13.7107 14.7122L18.8944 19.8134C19.147 20.0622 19.5571 20.0622 19.8096 19.8134C19.8697 19.7547 19.9175 19.6846 19.9501 19.6073C19.9827 19.5299 19.9995 19.4468 19.9996 19.3628C19.9996 19.2788 19.9829 19.1957 19.9504 19.1183C19.9179 19.0408 19.8702 18.9707 19.8102 18.9119ZM8.41447 15.2874C4.48231 15.2874 1.29468 12.1504 1.29468 8.28071C1.29468 4.41104 4.48231 1.27406 8.41447 1.27406C12.3467 1.27406 15.5343 4.41104 15.5343 8.28071C15.5343 12.1504 12.3467 15.2874 8.41447 15.2874Z" fill="#2B2A29"/>
</svg>
