<?xml version="1.0" encoding="utf-8"?><svg viewBox="0 0 76 76" xmlns="http://www.w3.org/2000/svg" xmlns:xlink="http://www.w3.org/1999/xlink"><style>:root>svg{display:none}:root>svg:target{display:block}</style><svg fill="none" viewBox="0 0 44 44" id="icon-advantages-assortment" xmlns="http://www.w3.org/2000/svg"><path d="M33.852 19.139c-.684 0-1.238.554-1.238 1.237V35.46a4.268 4.268 0 01-4.262 4.263H8.249a4.268 4.268 0 01-4.262-4.263V11.248a4.268 4.268 0 014.262-4.263h13.503a1.238 1.238 0 000-2.475H8.249a6.745 6.745 0 00-6.737 6.738v24.214a6.745 6.745 0 006.737 6.737h20.103a6.745 6.745 0 006.737-6.737V20.378c0-.685-.554-1.24-1.237-1.24z" fill="currentColor"/><path d="M26.029 22.688h-9.17a1.238 1.238 0 000 2.475h9.17a1.238 1.238 0 000-2.476zM11.569 22.688h-1.001a1.238 1.238 0 000 2.475h1.002a1.238 1.238 0 10-.001-2.476zM26.029 16.488h-9.17a1.238 1.238 0 000 2.475h9.17a1.238 1.238 0 000-2.475zM11.569 16.488h-1.001a1.238 1.238 0 000 2.475h1.002a1.238 1.238 0 10-.001-2.475zM26.029 28.888h-9.17a1.238 1.238 0 000 2.475h9.17a1.238 1.238 0 000-2.475zM11.569 28.888h-1.001a1.238 1.238 0 000 2.475h1.002a1.238 1.238 0 10-.001-2.475zM40.924 3.36a5.332 5.332 0 00-7.078-.4 5.335 5.335 0 00-7.083.402 5.33 5.33 0 000 7.528l5.086 5.086c.55.55 1.274.827 1.997.827a2.81 2.81 0 001.996-.827l5.086-5.086a5.33 5.33 0 00-.004-7.53zm-1.746 5.781l-5.086 5.086a.348.348 0 01-.492 0l-5.086-5.086a2.855 2.855 0 01.002-4.031 2.843 2.843 0 012.015-.832c.727 0 1.456.276 2.01.829l.43.43a1.233 1.233 0 001.748 0l.43-.429a2.855 2.855 0 014.028.006 2.851 2.851 0 01.001 4.027z" fill="currentColor"/></svg><svg fill="none" viewBox="0 0 44 44" id="icon-advantages-convenience" xmlns="http://www.w3.org/2000/svg"><path d="M39.876 21.628c-.684 0-1.238.554-1.238 1.237v9.391a2.932 2.932 0 01-2.929 2.929H8.292a2.932 2.932 0 01-2.929-2.929V17.93a2.931 2.931 0 012.929-2.929h14.396a1.238 1.238 0 000-2.475H8.292a5.411 5.411 0 00-5.405 5.404v14.328a5.411 5.411 0 005.405 5.403h27.417a5.411 5.411 0 005.405-5.403v-9.392a1.24 1.24 0 00-1.238-1.238z" fill="currentColor"/><path d="M16.25 25.094c0 3.17 2.58 5.749 5.75 5.749 3.171 0 5.75-2.578 5.75-5.749 0-3.17-2.579-5.75-5.75-5.75-3.17 0-5.75 2.58-5.75 5.75zm9.024 0A3.276 3.276 0 0122 28.368a3.276 3.276 0 01-3.274-3.274A3.276 3.276 0 0122 21.82a3.276 3.276 0 013.274 3.274zM11.344 26.64a1.547 1.547 0 100-3.094 1.547 1.547 0 000 3.094zM32.656 26.64a1.547 1.547 0 100-3.094 1.547 1.547 0 000 3.094zM33.689 21.19c4.094 0 7.425-3.33 7.425-7.425 0-4.094-3.332-7.425-7.425-7.425-4.094 0-7.425 3.33-7.425 7.425s3.33 7.425 7.425 7.425zm0-12.375c2.729 0 4.95 2.221 4.95 4.95 0 2.73-2.22 4.95-4.95 4.95-2.731 0-4.95-2.22-4.95-4.95 0-2.729 2.22-4.95 4.95-4.95z" fill="currentColor"/><path d="M32.811 17.169c.242.242.559.363.876.363.318 0 .634-.121.876-.363l2.024-2.024a1.235 1.235 0 000-1.75 1.23 1.23 0 00-1.662-.059v-2.1a1.238 1.238 0 00-2.475 0v2.1a1.228 1.228 0 00-1.661 1.809l2.022 2.024z" fill="currentColor"/></svg><svg fill="none" viewBox="0 0 44 44" id="icon-advantages-fame" xmlns="http://www.w3.org/2000/svg"><path d="M36.586 2.632a1.241 1.241 0 00-1.602.702l-.81 2.075a1.238 1.238 0 002.304.9l.811-2.074a1.235 1.235 0 00-.703-1.603zM41.701 14.31l-2.075-.812a1.24 1.24 0 00-1.603.703c-.25.636.065 1.354.701 1.603l2.075.811a1.237 1.237 0 00.902-2.306zM39.145 10.663c.166 0 .334-.033.496-.104l2.04-.894a1.237 1.237 0 10-.994-2.266l-2.04.894a1.237 1.237 0 00.498 2.37zM28.743 7.94L27.098 4.18a2.89 2.89 0 00-2.493-1.732 2.868 2.868 0 00-2.634 1.41c-1.529 2.624-4.533 6.255-10.164 8.648l-.005.005c-.003 0-.004 0-.007.002l-6.72 2.94a5.913 5.913 0 00-3.154 3.284 5.904 5.904 0 00.092 4.552l1.76 4.019a5.957 5.957 0 005.458 3.561c.794 0 1.603-.16 2.377-.5l.513-.225 3.946 9.01a3.98 3.98 0 002.21 2.124 3.99 3.99 0 001.46.277c.545 0 1.09-.114 1.605-.34a3.978 3.978 0 002.124-2.209 3.975 3.975 0 00-.062-3.065l-3.928-8.972c5.074-1.993 9.353-1.76 12.108-1.148a2.843 2.843 0 002.824-.979c.7-.85.86-2.002.42-3.007l-1.646-3.76a5.651 5.651 0 001.85-6.85c-1.084-2.476-3.737-3.785-6.289-3.287zM7.957 28.157a3.455 3.455 0 01-1.918-1.842l-1.76-4.018a3.478 3.478 0 011.79-4.576l5.586-2.446L16.2 25.66l-5.586 2.444c-.847.37-1.794.39-2.658.055zm13.206 9.949a1.534 1.534 0 01-2.828.056l-3.945-9.01 2.805-1.227 3.945 9.01c.162.374.17.791.023 1.17zM32.498 23.27a.366.366 0 01-.375.134c-3.121-.69-7.951-.993-13.648 1.274L13.918 14.27C19.447 11.62 22.5 7.869 24.11 5.104a.35.35 0 01.354-.184c.08.004.274.038.369.253l7.73 17.655a.424.424 0 01-.065.442zm-2.72-12.969a3.207 3.207 0 012.986 1.918 3.17 3.17 0 01.048 2.45c-.154.395-.38.747-.664 1.046l-2.37-5.414z" fill="currentColor"/></svg><svg fill="none" viewBox="0 0 44 44" id="icon-advantages-manufacturers" xmlns="http://www.w3.org/2000/svg"><path d="M17.191 18.03l-.474 2.763a1.92 1.92 0 00.77 1.89c.338.244.733.37 1.13.37.308 0 .616-.075.9-.225L22 21.522l2.48 1.303c.656.345 1.433.29 2.034-.143.6-.434.894-1.159.77-1.89l-.474-2.763 2.006-1.956c.532-.516.719-1.275.49-1.979a1.918 1.918 0 00-1.559-1.314l-2.776-.403-1.239-2.515-.001-.002A1.917 1.917 0 0022 8.785c-.74 0-1.404.413-1.733 1.077l-1.239 2.515-2.773.402a1.918 1.918 0 00-1.562 1.315 1.917 1.917 0 00.49 1.977l2.008 1.958zm2.837-3.298c.403-.06.75-.312.932-.676l1.04-2.11 1.04 2.108c.18.366.529.617.932.677l2.326.338-1.683 1.64a1.232 1.232 0 00-.356 1.096l.397 2.317-2.081-1.095a1.246 1.246 0 00-1.153 0l-2.081 1.095.397-2.317a1.232 1.232 0 00-.356-1.096l-1.683-1.64 2.33-.337z" fill="currentColor"/><path d="M36.776 16.288c0-8.146-6.629-14.775-14.776-14.775-8.146 0-14.775 6.629-14.775 14.775 0 4.634 2.149 8.772 5.497 11.483v12.755a1.962 1.962 0 003.037 1.64L22 38.067l6.241 4.098a1.956 1.956 0 002.008.086 1.96 1.96 0 001.03-1.727V27.77c3.348-2.71 5.497-6.848 5.497-11.482zm-27.075 0c0-6.782 5.516-12.3 12.3-12.3 6.782 0 12.299 5.518 12.299 12.3 0 6.78-5.517 12.3-12.3 12.3S9.701 23.07 9.701 16.288zm19.101 23.285l-5.726-3.76a1.96 1.96 0 00-2.152 0l-5.726 3.76V29.39a14.671 14.671 0 0013.604 0v10.182z" fill="currentColor"/></svg><svg fill="none" viewBox="0 0 20 21" id="icon-basket" xmlns="http://www.w3.org/2000/svg"><g clip-path="url(#eclip0_529_1036)"><path fill-rule="evenodd" clip-rule="evenodd" d="M.63.5a.626.626 0 00-.623.624v1.881c0 .344.28.622.623.624h.787l2.342 7.606v8.668c-.005.593.742.86 1.114.397l1.441-1.786 1.327 1.768a.625.625 0 00.974.028l1.398-1.636 1.407 1.641c.26.303.735.287.976-.033l1.325-1.768 1.443 1.786v-.003c.322.398 1.112.273 1.112-.394v-8.668l2.341-7.606h.788a.626.626 0 00.623-.624V1.124A.626.626 0 0019.405.5H.63zm.629 1.252h17.517v.624H1.26v-.624zm2.05 1.877h4.207v2.296l-1.132 1.51-3.075-3.806zm5.459 0h2.499v2.276l-1.25 1.458-1.25-1.458V3.63zm3.752 0h4.206l-3.074 3.806-1.132-1.51V3.629zm4.156 2.05l-1.262 4.104-.988-1.316 2.25-2.788zM3.36 5.686L5.61 8.468l-.987 1.315-1.26-4.097zm4.81 1.446l1.022 1.192L8.116 9.58l-.923-1.143.978-1.305zm3.693.003l.976 1.304-.921 1.141-1.076-1.254 1.02-1.19zm-1.845 2.152l1.1 1.284-1.102 1.363-1.1-1.362 1.102-1.285zm3.595.183l1.224 1.631-.807.944-1.285-1.499.868-1.076zm-7.196.002l.87 1.075-1.295 1.51-.807-.94 1.232-1.645zm5.529 2.065l1.262 1.472-1.195 1.397-1.192-1.476 1.125-1.393zm-3.859.002l1.125 1.393-1.198 1.483-1.197-1.395 1.27-1.48zm6.936 1.27v.394l-.169-.197.17-.197zm-10.013.029l.156.183-.156.183v-.367zm5.006 1.09l1.17 1.448-1.172 1.37-1.171-1.364 1.173-1.454zm4.016.042l.815.95-1.164 1.554-.87-1.078 1.219-1.426zm-8.04.013l1.221 1.425-.863 1.067-1.164-1.553.806-.939zm5.993 2.382l.923 1.143-1.045 1.393-1.025-1.194 1.147-1.342zm-3.943.01l1.147 1.338-1.019 1.192-1.045-1.396.917-1.134zm-3.032.4l.528.705-.528.654v-1.358zm10.013.002v1.354l-.527-.651.527-.703z" fill="currentColor"/></g><defs><clipPath id="eclip0_529_1036"><path fill="#fff" transform="translate(0 .5)" d="M0 0h20v20H0z"/></clipPath></defs></svg><svg fill="none" viewBox="0 0 76 76" id="icon-big-pin" xmlns="http://www.w3.org/2000/svg"><g filter="url(#ffilter0_d_438_12738)" clip-path="url(#fclip0_438_12738)"><path d="M59.485 20.148a23.75 23.75 0 00-18.79-12.886 26.992 26.992 0 00-5.389 0 23.756 23.756 0 00-18.791 12.885 25.664 25.664 0 003.517 28.247L36.165 68.01a2.373 2.373 0 003.67 0l16.133-19.615a25.663 25.663 0 003.517-28.246zM38 40.375a9.5 9.5 0 119.5-9.5 9.511 9.511 0 01-9.5 9.5z" fill="currentColor"/></g><defs><clipPath id="fclip0_438_12738"><path fill="#fff" d="M0 0h76v76H0z"/></clipPath><filter id="ffilter0_d_438_12738" x="3.802" y="-.873" width="68.397" height="81.749" filterUnits="userSpaceOnUse" color-interpolation-filters="sRGB"><feFlood flood-opacity="0" result="BackgroundImageFix"/><feColorMatrix in="SourceAlpha" values="0 0 0 0 0 0 0 0 0 0 0 0 0 0 0 0 0 0 127 0" result="hardAlpha"/><feOffset dy="2"/><feGaussianBlur stdDeviation="5"/><feColorMatrix values="0 0 0 0 0.321569 0 0 0 0 0.372549 0 0 0 0 0.443137 0 0 0 0.32 0"/><feBlend in2="BackgroundImageFix" result="effect1_dropShadow_438_12738"/><feBlend in="SourceGraphic" in2="effect1_dropShadow_438_12738" result="shape"/></filter></defs></svg><svg fill="none" viewBox="0 0 20 21" id="icon-burger" xmlns="http://www.w3.org/2000/svg"><path fill-rule="evenodd" clip-rule="evenodd" d="M1.667 4.944c0-.294.125-.577.348-.785.223-.209.526-.326.842-.326h14.286c.315 0 .618.117.841.326.224.208.35.49.35.785 0 .295-.126.578-.35.786a1.235 1.235 0 01-.841.326H2.857c-.316 0-.619-.118-.842-.326a1.075 1.075 0 01-.349-.786zm0 5.556c0-.295.125-.577.348-.786.223-.208.526-.325.842-.325h14.286c.315 0 .618.117.841.325.224.209.35.491.35.786 0 .295-.126.577-.35.786a1.235 1.235 0 01-.841.325H2.857c-.316 0-.619-.117-.842-.325a1.075 1.075 0 01-.349-.786zm0 5.555c0-.294.125-.577.348-.785.223-.208.526-.326.842-.326h14.286c.315 0 .618.117.841.326.224.208.35.49.35.785 0 .295-.126.578-.35.786a1.235 1.235 0 01-.841.326H2.857c-.316 0-.619-.117-.842-.326a1.075 1.075 0 01-.349-.786z" fill="currentColor"/></svg><svg fill="none" viewBox="0 0 20 20" id="icon-card" xmlns="http://www.w3.org/2000/svg"><g clip-path="url(#hclip0_384_19303)" fill="currentColor"><path d="M4.583 14.167a1.25 1.25 0 100-2.5 1.25 1.25 0 000 2.5z"/><path d="M15.833 2.5H4.167A4.172 4.172 0 000 6.667v6.666A4.172 4.172 0 004.167 17.5h11.666A4.172 4.172 0 0020 13.333V6.667A4.172 4.172 0 0015.833 2.5zM4.167 4.167h11.666a2.5 2.5 0 012.5 2.5H1.667a2.5 2.5 0 012.5-2.5zm11.666 11.666H4.167a2.5 2.5 0 01-2.5-2.5v-5h16.666v5a2.5 2.5 0 01-2.5 2.5z"/></g><defs><clipPath id="hclip0_384_19303"><path fill="#fff" d="M0 0h20v20H0z"/></clipPath></defs></svg><svg fill="none" viewBox="0 0 16 13" id="icon-check" xmlns="http://www.w3.org/2000/svg"><path d="M6.127 12.184a.815.815 0 01-1.155 0L.359 7.571a1.225 1.225 0 010-1.733l.578-.577a1.225 1.225 0 011.732 0l2.88 2.88L13.331.359a1.225 1.225 0 011.732 0l.578.578a1.225 1.225 0 010 1.732l-9.514 9.515z" fill="currentColor"/></svg><svg fill="none" viewBox="0 0 32 32" id="icon-close" xmlns="http://www.w3.org/2000/svg"><path d="M21 11a.833.833 0 00-1.178 0L16 14.822 12.178 11A.833.833 0 1011 12.178L14.822 16 11 19.822A.834.834 0 0012.178 21L16 17.178 19.822 21A.833.833 0 0021 19.822L17.178 16 21 12.178A.834.834 0 0021 11z" fill="currentColor"/></svg><svg fill="none" viewBox="0 0 20 20" id="icon-email" xmlns="http://www.w3.org/2000/svg"><g clip-path="url(#kclip0_437_12713)"><path d="M15.833.833H4.167A4.172 4.172 0 000 5v10a4.172 4.172 0 004.167 4.166h11.666A4.172 4.172 0 0020 15V5A4.172 4.172 0 0015.833.833zM4.167 2.5h11.666a2.5 2.5 0 012.317 1.572l-6.382 6.383a2.506 2.506 0 01-3.536 0L1.85 4.072A2.5 2.5 0 014.167 2.5zm11.666 15H4.167a2.5 2.5 0 01-2.5-2.5V6.25l5.386 5.383a4.173 4.173 0 005.894 0l5.386-5.383V15a2.5 2.5 0 01-2.5 2.5z" fill="currentColor"/></g><defs><clipPath id="kclip0_437_12713"><path fill="#fff" d="M0 0h20v20H0z"/></clipPath></defs></svg><svg fill="none" viewBox="0 0 20 20" id="icon-label-open" xmlns="http://www.w3.org/2000/svg"><path d="M15.591 6.842a.832.832 0 00-1.183 0l-3.817 3.816a.832.832 0 01-1.183 0L5.591 6.842a.833.833 0 10-1.183 1.175l3.825 3.825a2.5 2.5 0 003.533 0l3.825-3.825a.833.833 0 000-1.175z" fill="currentColor"/></svg><svg fill="none" viewBox="0 0 32 32" id="icon-login" xmlns="http://www.w3.org/2000/svg"><g clip-path="url(#mclip0_529_1030)" fill="currentColor"><path d="M16 16a5 5 0 100-10 5 5 0 000 10zm0-8.333a3.333 3.333 0 110 6.666 3.333 3.333 0 010-6.666zM16 17.667a7.508 7.508 0 00-7.5 7.5.833.833 0 101.667 0 5.833 5.833 0 1111.666 0 .833.833 0 101.667 0 7.508 7.508 0 00-7.5-7.5z"/></g><defs><clipPath id="mclip0_529_1030"><path fill="#fff" transform="translate(6 6)" d="M0 0h20v20H0z"/></clipPath></defs></svg><svg fill="none" viewBox="0 0 24 24" id="icon-minus" xmlns="http://www.w3.org/2000/svg"><path d="M17 11H7a1 1 0 100 2h10a1 1 0 100-2z" fill="currentColor"/></svg><svg fill="none" viewBox="0 0 20 20" id="icon-mob-filter" xmlns="http://www.w3.org/2000/svg"><g clip-path="url(#oclip0_542_4339)"><path d="M11.667 20a.833.833 0 01-.5-.167l-3.334-2.5a.832.832 0 01-.333-.666v-4.684L1.653 5.406A3.25 3.25 0 014.083 0h11.834a3.25 3.25 0 012.427 5.407L12.5 11.983v7.184a.833.833 0 01-.833.833zm-2.5-3.75l1.666 1.25v-5.833c0-.204.076-.401.211-.554L17.101 4.3a1.583 1.583 0 00-1.184-2.632H4.083A1.583 1.583 0 002.9 4.298l6.058 6.815c.135.153.21.35.21.554v4.583z" fill="currentColor"/></g><defs><clipPath id="oclip0_542_4339"><path fill="#fff" d="M0 0h20v20H0z"/></clipPath></defs></svg><svg fill="none" viewBox="0 0 8 8" id="icon-mob-filter-chosen" xmlns="http://www.w3.org/2000/svg"><rect x=".75" y=".75" width="6.5" height="6.5" rx="3.25" fill="#fff"/><rect x=".75" y=".75" width="6.5" height="6.5" rx="3.25" stroke="#F60" stroke-width="1.5"/></svg><svg fill="none" viewBox="0 0 20 20" id="icon-phone" xmlns="http://www.w3.org/2000/svg"><g clip-path="url(#qclip0_414_611)"><path d="M10.834.833A.834.834 0 0111.667 0 8.343 8.343 0 0120 8.333a.833.833 0 11-1.666 0 6.674 6.674 0 00-6.667-6.666.833.833 0 01-.833-.834zM11.667 5A3.333 3.333 0 0115 8.333a.833.833 0 101.667 0 5.005 5.005 0 00-5-5 .833.833 0 000 1.667zm7.577 8.95a2.583 2.583 0 010 3.648l-.758.874c-6.825 6.534-23.433-10.07-17-16.917l.958-.833A2.568 2.568 0 016.05.755c.026.026 1.57 2.032 1.57 2.032a2.583 2.583 0 01-.006 3.568L6.65 7.568a10.65 10.65 0 005.776 5.788l1.221-.97a2.584 2.584 0 013.567-.006s2.005 1.543 2.031 1.57zm-1.146 1.21s-1.994-1.533-2.02-1.56a.916.916 0 00-1.291 0c-.023.024-1.704 1.363-1.704 1.363a.833.833 0 01-.815.127 12.507 12.507 0 01-7.351-7.34.833.833 0 01.12-.833S6.378 5.235 6.4 5.213a.917.917 0 000-1.29c-.026-.025-1.56-2.021-1.56-2.021a.917.917 0 00-1.258.032l-.958.834c-4.702 5.653 9.69 19.247 14.645 14.565l.759-.875a.934.934 0 00.07-1.297z" fill="currentColor"/></g><defs><clipPath id="qclip0_414_611"><path fill="#fff" d="M0 0h20v20H0z"/></clipPath></defs></svg><svg fill="none" viewBox="0 0 20 22" id="icon-pin" xmlns="http://www.w3.org/2000/svg"><g clip-path="url(#rclip0_437_12727)" fill="currentColor"><path d="M10 6a3.333 3.333 0 100 6.667A3.333 3.333 0 0010 6zm0 5a1.666 1.666 0 110-3.332A1.666 1.666 0 0110 11z"/><path d="M10 21a4.392 4.392 0 01-3.592-1.833c-3.176-4.381-4.787-7.674-4.787-9.79a8.38 8.38 0 0116.758 0c0 2.116-1.61 5.409-4.786 9.79A4.393 4.393 0 0110 21zm0-18.182A6.57 6.57 0 003.44 9.379c0 1.675 1.577 4.773 4.44 8.722a2.62 2.62 0 004.242 0c2.863-3.95 4.44-7.047 4.44-8.722a6.57 6.57 0 00-6.56-6.561z"/></g><defs><clipPath id="rclip0_437_12727"><path fill="#fff" transform="translate(0 1)" d="M0 0h20v20H0z"/></clipPath></defs></svg><svg fill="none" viewBox="0 0 24 24" id="icon-plus" xmlns="http://www.w3.org/2000/svg"><path d="M17 11h-4V7a1 1 0 00-2 0v4H7a1 1 0 000 2h4v4a1 1 0 002 0v-4h4a1 1 0 000-2z" fill="currentColor"/></svg><svg fill="none" viewBox="0 0 20 20" id="icon-search" xmlns="http://www.w3.org/2000/svg"><g clip-path="url(#tclip0_529_1048)"><path d="M19.756 18.578l-4.975-4.974a8.347 8.347 0 10-1.178 1.178l4.974 4.974a.833.833 0 001.179-1.178zM8.333 15.001A6.666 6.666 0 1115 8.334 6.674 6.674 0 018.333 15z" fill="currentColor"/></g><defs><clipPath id="tclip0_529_1048"><path fill="#fff" d="M0 0h20v20H0z"/></clipPath></defs></svg><svg fill="none" viewBox="0 0 20 20" id="icon-slider-arrow-next" xmlns="http://www.w3.org/2000/svg"><path d="M15 10a1.667 1.667 0 00-.492-1.167L10.933 5.25a.833.833 0 10-1.175 1.183L12.5 9.167H4.166a.833.833 0 000 1.666H12.5l-2.742 2.742a.834.834 0 101.175 1.183l3.575-3.583c.313-.311.49-.734.492-1.175z" fill="currentColor"/></svg><svg fill="none" viewBox="0 0 20 20" id="icon-slider-arrow-prev" xmlns="http://www.w3.org/2000/svg"><path d="M15.833 9.167H7.5l2.742-2.742a.833.833 0 10-1.175-1.183L5.492 8.825c-.313.311-.49.734-.492 1.175.004.438.18.858.492 1.167l3.575 3.583a.832.832 0 001.421-.595.835.835 0 00-.246-.588L7.5 10.833h8.333a.833.833 0 000-1.666z" fill="currentColor"/></svg><svg fill="none" viewBox="0 0 20 20" id="icon-track" xmlns="http://www.w3.org/2000/svg"><g clip-path="url(#wclip0_384_19291)"><path d="M20 9.167A4.171 4.171 0 0015.833 5h-1.666v-.833c0-1.379-1.122-2.5-2.5-2.5h-.834v1.666h.834c.459 0 .833.374.833.834V15H1.667v-5H0v6.667h1.7c-.02.137-.033.275-.033.416A2.92 2.92 0 004.583 20 2.92 2.92 0 007.5 17.083c0-.14-.014-.279-.034-.416h5.068c-.02.137-.034.275-.034.416A2.92 2.92 0 0015.417 20a2.92 2.92 0 002.916-2.917c0-.14-.014-.279-.034-.416H20v-7.5zM5.833 17.083c0 .69-.56 1.25-1.25 1.25-.689 0-1.25-.56-1.25-1.25 0-.157.033-.295.078-.416h2.346c.045.12.076.259.076.416zm10-10.416c1.379 0 2.5 1.121 2.5 2.5V10h-4.166V6.667h1.666zm.834 10.416c0 .69-.561 1.25-1.25 1.25-.69 0-1.25-.56-1.25-1.25 0-.157.032-.295.077-.416h2.346c.045.12.077.259.077.416zM14.167 15v-3.333h4.166V15h-4.166zm-5-12.917C9.167.934 8.232 0 7.083 0h-5A2.086 2.086 0 000 2.083v6.25h9.167v-6.25zM7.5 6.667H1.667V2.083c0-.229.186-.416.416-.416h5c.23 0 .417.187.417.416v4.584zM3.333 2.5h2.5v1.667h-2.5V2.5z" fill="currentColor"/></g><defs><clipPath id="wclip0_384_19291"><path fill="#fff" d="M0 0h20v20H0z"/></clipPath></defs></svg><svg fill="none" viewBox="0 0 20 20" id="icon-web" xmlns="http://www.w3.org/2000/svg"><g clip-path="url(#xclip0_437_12718)"><path d="M10 0a10 10 0 1010 10A10.011 10.011 0 0010 0zm7.206 5.833h-2.684a16.396 16.396 0 00-2.351-3.87 8.36 8.36 0 015.035 3.87zM13.75 10a8.506 8.506 0 01-.397 2.5H6.647A8.51 8.51 0 016.25 10a8.51 8.51 0 01.397-2.5h6.706c.257.809.39 1.652.397 2.5zm-6.435 4.167h5.37A16.344 16.344 0 0110 17.99a16.309 16.309 0 01-2.685-3.823zm0-8.334A16.345 16.345 0 0110 2.01a16.308 16.308 0 012.685 3.823h-5.37zm.518-3.87a16.396 16.396 0 00-2.355 3.87H2.794a8.36 8.36 0 015.04-3.87zM2.051 7.5h2.866a10.014 10.014 0 00-.334 2.5c.006.844.118 1.684.334 2.5H2.05a8.327 8.327 0 010-5zm.743 6.667h2.684a16.399 16.399 0 002.355 3.87 8.36 8.36 0 01-5.039-3.87zm9.377 3.87a16.396 16.396 0 002.35-3.87h2.685a8.36 8.36 0 01-5.035 3.87zm5.778-5.537h-2.866a10.01 10.01 0 00.334-2.5 10.01 10.01 0 00-.334-2.5h2.865a8.327 8.327 0 010 5h.001z" fill="currentColor"/></g><defs><clipPath id="xclip0_437_12718"><path fill="#fff" d="M0 0h20v20H0z"/></clipPath></defs></svg><svg fill="none" viewBox="0 0 32 32" id="social-facebook" xmlns="http://www.w3.org/2000/svg"><path d="M16 1.938C8.231 1.938 1.937 8.23 1.937 16c0 7.769 6.294 14.063 14.063 14.063 7.769 0 14.063-6.294 14.063-14.063 0-7.769-6.294-14.063-14.063-14.063zm4.038 8.818s-1.488-.012-1.863-.012c-.563 0-.938.487-.938.981v2.069h2.8l-.318 2.819h-2.513v7.2h-2.843V16.65h-2.4v-2.887H14.4v-2.726c0-1.518 1.687-2.856 2.862-2.856.175 0 2.776.025 2.776.025v2.55z" fill="currentColor"/></svg><svg fill="none" viewBox="0 0 32 32" id="social-instagram" xmlns="http://www.w3.org/2000/svg"><path d="M18.987 9.931H13.02A3.09 3.09 0 009.93 13.02v5.969a3.09 3.09 0 003.088 3.087h5.968a3.09 3.09 0 003.088-3.087v-5.97a3.094 3.094 0 00-3.088-3.087zM16 19.994A4.001 4.001 0 0112.006 16c0-2.2 1.794-3.994 3.994-3.994S19.994 13.8 19.994 16 18.2 19.994 16 19.994zm4.194-7.544a.672.672 0 01-.675-.675c0-.375.3-.675.675-.675.375 0 .675.3.675.675 0 .375-.3.675-.675.675z" fill="currentColor"/><path d="M18.428 16.03a2.425 2.425 0 10-4.85-.059 2.425 2.425 0 004.85.059z" fill="currentColor"/><path d="M16 1.938C8.231 1.938 1.937 8.23 1.937 16c0 7.769 6.294 14.063 14.063 14.063 7.769 0 14.063-6.294 14.063-14.063 0-7.769-6.294-14.063-14.063-14.063zm7.813 17.05a4.828 4.828 0 01-4.825 4.825h-5.97a4.828 4.828 0 01-4.824-4.825v-5.97a4.828 4.828 0 014.825-4.824h5.969a4.828 4.828 0 014.825 4.825v5.969z" fill="currentColor"/></svg></svg>