<svg width="298" height="298" viewBox="0 0 298 298" fill="none" xmlns="http://www.w3.org/2000/svg">
<path d="M106.746 270.15C106.479 270.15 106.258 269.937 106.249 269.669L101.203 114.153C101.196 113.925 101.344 113.722 101.564 113.659L167.299 94.9537C167.518 94.8912 167.753 94.9865 167.866 95.1842L266.498 267.429C266.585 267.582 266.585 267.77 266.498 267.922C266.411 268.075 266.249 268.17 266.073 268.172L106.752 270.149C106.752 270.149 106.748 270.149 106.746 270.149V270.15ZM102.209 114.509L107.227 269.151L265.217 267.191L167.197 96.0166L102.21 114.51L102.209 114.509Z" fill="#E6E6E6"/>
<path d="M109.194 162.478C108.548 160.453 107.175 158.865 105.456 157.902L108.496 135.813L102.765 135.025L99.7307 157.076C99.5092 157.126 99.2877 157.185 99.0672 157.255C94.8286 158.609 92.4913 163.143 93.8452 167.381C95.2001 171.619 99.7337 173.956 103.971 172.603C108.21 171.248 110.547 166.714 109.192 162.477L109.194 162.478Z" fill="#FFA66A"/>
<path d="M101.524 173.484C97.9021 173.484 94.5307 171.163 93.3715 167.534C91.9361 163.042 94.4224 158.218 98.9153 156.783C99.0335 156.745 99.1556 156.709 99.2838 156.675L102.273 134.958C102.31 134.686 102.561 134.496 102.833 134.534L108.564 135.323C108.694 135.341 108.812 135.41 108.891 135.515C108.971 135.62 109.006 135.752 108.988 135.882L105.993 157.642C107.742 158.714 109.04 160.366 109.667 162.327C111.102 166.818 108.616 171.642 104.123 173.077C103.261 173.354 102.386 173.484 101.526 173.484H101.524ZM103.188 135.585L100.22 157.144C100.193 157.349 100.041 157.515 99.8391 157.561C99.6096 157.613 99.406 157.668 99.2162 157.728C95.2459 158.997 93.0476 163.26 94.3171 167.231C95.3422 170.438 98.3222 172.489 101.523 172.489C102.284 172.489 103.056 172.373 103.819 172.13C107.79 170.861 109.988 166.598 108.718 162.628C108.133 160.798 106.888 159.274 105.211 158.334C105.032 158.235 104.934 158.035 104.962 157.834L107.934 136.237L103.188 135.583V135.585Z" fill="#535A63"/>
<path d="M202.293 132.722C200.938 128.484 196.404 126.146 192.167 127.5C191.946 127.571 191.733 127.651 191.522 127.739L176.262 111.534L172.051 115.5L187.337 131.732C186.495 133.512 186.298 135.603 186.945 137.627C188.3 141.866 192.833 144.203 197.071 142.849C201.309 141.494 203.647 136.961 202.293 132.723V132.722Z" fill="#FFA66A"/>
<path d="M194.625 143.729C191.003 143.729 187.632 141.409 186.473 137.779C185.846 135.819 185.946 133.72 186.749 131.832L171.69 115.842C171.502 115.642 171.511 115.328 171.711 115.139L175.921 111.174C176.018 111.083 176.146 111.035 176.277 111.039C176.409 111.043 176.533 111.098 176.624 111.195L191.654 127.154C191.778 127.107 191.898 127.065 192.016 127.028C196.508 125.592 201.332 128.078 202.767 132.571C204.203 137.064 201.716 141.887 197.223 143.322C196.361 143.598 195.486 143.728 194.626 143.728L194.625 143.729ZM172.753 115.523L187.698 131.393C187.838 131.542 187.873 131.762 187.786 131.946C186.964 133.684 186.833 135.649 187.417 137.478C188.686 141.449 192.949 143.647 196.919 142.377C200.89 141.109 203.087 136.846 201.819 132.875C200.55 128.905 196.287 126.707 192.316 127.976C192.126 128.037 191.928 128.11 191.711 128.201C191.521 128.28 191.301 128.232 191.159 128.082L176.239 112.24L172.752 115.524L172.753 115.523Z" fill="#535A63"/>
<path d="M143.904 137.125C175.046 127.19 196.701 107.882 192.272 93.9971C187.843 80.1126 159.007 76.9102 127.865 86.8444C96.7223 96.7785 75.067 116.087 79.4961 129.972C83.9251 143.856 112.761 147.059 143.904 137.125Z" fill="#FFA66A"/>
<path d="M109.657 143.297C106.877 143.297 104.196 143.157 101.638 142.875C95.6591 142.215 90.6746 140.806 86.8224 138.689C82.7785 136.467 80.1571 133.557 79.0337 130.039C77.9092 126.522 78.3562 122.631 80.3628 118.476C82.2739 114.517 85.5182 110.48 90.0051 106.473C99.1844 98.2794 112.566 91.1066 127.685 86.274C142.805 81.4424 157.867 79.5253 170.097 80.8772C176.075 81.5378 181.06 82.9463 184.912 85.0631C188.956 87.2852 191.576 90.1957 192.701 93.7131C193.825 97.2305 193.378 101.121 191.372 105.276C189.461 109.235 186.216 113.273 181.729 117.279C172.55 125.473 159.169 132.646 144.049 137.478C132.093 141.3 120.17 143.297 109.657 143.298V143.297ZM162.071 81.4484C151.664 81.4484 139.85 83.4301 127.988 87.2216C112.999 92.0125 99.7447 99.1128 90.6666 107.215C86.2771 111.134 83.1113 115.068 81.2568 118.908C79.3655 122.827 78.9353 126.47 79.9793 129.737C81.0233 133.004 83.4868 135.723 87.3002 137.819C91.0381 139.872 95.8985 141.241 101.747 141.888C104.271 142.167 106.919 142.305 109.663 142.305C120.07 142.305 131.885 140.323 143.746 136.532C158.736 131.741 171.99 124.641 181.068 116.538C185.457 112.619 188.623 108.686 190.478 104.845C192.369 100.927 192.799 97.2831 191.755 94.016C190.711 90.749 188.248 88.0302 184.434 85.9343C180.696 83.8811 175.836 82.5122 169.987 81.8656C167.463 81.5865 164.816 81.4484 162.071 81.4484Z" fill="#535A63"/>
<path d="M239.782 60.2775L21.2893 130.105L17.0508 131.46L18.5785 136.242C21.6847 145.962 75.0128 137.604 137.688 117.574C200.363 97.5434 248.654 73.4263 245.548 63.7055L244.021 58.9236L239.782 60.2785V60.2775Z" fill="#393F4F"/>
<path d="M32.389 140.793C31.4374 140.793 30.5295 140.775 29.6653 140.738C22.8242 140.45 18.9353 138.988 18.1059 136.393L16.5781 131.611C16.5384 131.486 16.5493 131.349 16.6099 131.232C16.6705 131.115 16.7748 131.027 16.9 130.987L243.87 58.4507C244.131 58.3673 244.41 58.5113 244.494 58.7726L246.021 63.5545C246.851 66.1501 244.53 69.5969 239.125 73.7987C234.053 77.7413 226.444 82.256 216.508 87.2177C196.114 97.4023 168.176 108.352 137.839 118.047C107.503 127.742 78.3933 135.025 55.8724 138.555C46.3801 140.043 38.499 140.793 32.39 140.793H32.389ZM17.6748 131.782L19.0515 136.09C19.731 138.216 23.4152 139.48 29.707 139.745C36.0604 140.012 44.8116 139.282 55.7174 137.573C78.1896 134.05 107.247 126.78 137.536 117.1C167.826 107.42 195.714 96.4914 216.064 86.3286C225.941 81.3958 233.494 76.9168 238.515 73.014C243.486 69.1489 245.755 65.9832 245.076 63.8565L243.699 59.5484L239.934 60.7513L17.6738 131.782H17.6748Z" fill="#535A63"/>
<path d="M136.172 112.898C198.879 92.8956 247.197 68.7964 244.095 59.0715C240.993 49.3465 187.645 57.6784 124.938 77.6813C62.232 97.6841 13.9133 121.783 17.0154 131.508C20.1176 141.233 73.466 132.901 136.172 112.898Z" fill="#DDDDDD"/>
<path d="M30.8612 136.011C29.9095 136.011 29.0016 135.993 28.1374 135.957C21.2964 135.668 17.4075 134.206 16.578 131.611C15.7486 129.015 18.069 125.569 23.4747 121.366C28.5467 117.424 36.1556 112.909 46.0909 107.948C66.4851 97.7619 94.4236 86.8134 124.76 77.1185C155.096 67.4235 184.206 60.1404 206.728 56.6101C217.699 54.8906 226.516 54.1556 232.934 54.4268C239.775 54.7148 243.664 56.177 244.493 58.7726C245.323 61.3682 243.002 64.814 237.597 69.0168C232.525 72.9594 224.916 77.4741 214.98 82.4358C194.586 92.6214 166.648 103.57 136.311 113.265C105.975 122.96 76.8654 130.243 54.3436 133.773C44.8513 135.261 36.9702 136.011 30.8612 136.011ZM230.204 55.3655C224.15 55.3655 216.323 56.1124 206.881 57.5915C184.409 61.1139 155.352 68.3841 125.062 78.0641C94.7722 87.7441 66.8844 98.6728 46.534 108.836C36.6573 113.768 29.104 118.247 24.0836 122.15C19.112 126.015 16.8432 129.181 17.5227 131.308C18.2021 133.434 21.8864 134.698 28.1782 134.963C34.5315 135.231 43.2828 134.5 54.1886 132.791C76.6608 129.268 105.718 121.998 136.007 112.318C166.297 102.638 194.185 91.7095 214.535 81.5467C224.412 76.6138 231.965 72.1349 236.986 68.2321C241.957 64.367 244.226 61.2013 243.547 59.0746C242.867 56.9478 239.183 55.6843 232.891 55.4191C232.039 55.3833 231.143 55.3655 230.204 55.3655Z" fill="#535A63"/>
<path d="M50.6864 124.166C50.0119 124.166 49.3662 124.155 48.7464 124.131C43.0457 123.92 39.9395 122.768 39.2491 120.609C38.5588 118.449 40.4213 115.709 44.9429 112.232C49.098 109.036 55.3242 105.372 63.4497 101.338C80.1218 93.0625 102.951 84.1433 127.728 76.2245C152.506 68.3056 176.275 62.3327 194.658 59.4053C203.616 57.9789 210.815 57.3531 216.053 57.5468C221.753 57.7574 224.859 58.9097 225.55 61.0692C226.24 63.2287 224.378 65.9683 219.856 69.446C215.701 72.6415 209.475 76.3059 201.349 80.3398C184.677 88.6153 161.848 97.5344 137.071 105.453C112.293 113.372 88.5234 119.345 70.1408 122.272C62.2418 123.53 55.7117 124.165 50.6864 124.165V124.166ZM214.109 58.5074C209.139 58.5074 202.662 59.1381 194.815 60.3878C176.481 63.3072 152.763 69.2682 128.032 77.1721C103.3 85.0761 80.5221 93.9743 63.8927 102.229C55.8249 106.233 49.6543 109.864 45.5499 113.021C42.7367 115.184 39.5243 118.205 40.1958 120.308C40.8683 122.41 45.2369 123.008 48.7831 123.14C53.9564 123.33 61.0906 122.709 69.9849 121.293C88.3188 118.374 112.037 112.413 136.768 104.509C161.5 96.6047 184.278 87.7064 200.907 79.4518C208.975 75.4477 215.146 71.817 219.25 68.6602C222.063 66.4968 225.276 63.476 224.604 61.3731C223.932 59.2702 219.563 58.6723 216.017 58.5411C215.408 58.5183 214.772 58.5074 214.109 58.5074Z" fill="#535A63"/>
<path d="M192.976 74.3808C154.486 98.0728 112.693 111.429 67.5975 114.45C65.3287 114.602 63.4364 112.735 63.5476 110.465L64.4665 91.7771C65.8194 64.2518 84.1096 40.4555 110.36 32.0658C136.611 23.6761 165.312 32.4552 182.377 54.094L193.963 68.7854C195.372 70.5714 194.912 73.1888 192.976 74.3808Z" fill="white"/>
<path d="M67.3453 114.956C66.2248 114.956 65.1411 114.515 64.3355 113.724C63.4594 112.864 62.9915 111.667 63.0521 110.44L63.9709 91.7522C64.3067 84.927 65.6795 78.228 68.0516 71.8409C70.373 65.5908 73.6142 59.7371 77.6839 54.4416C81.7536 49.1472 86.5762 44.5093 92.0187 40.6572C97.5804 36.7216 103.7 33.671 110.21 31.591C116.719 29.511 123.474 28.4461 130.287 28.4272C136.955 28.4074 143.573 29.3898 149.959 31.3427C156.345 33.2956 162.379 36.1852 167.896 39.931C173.533 43.7583 178.536 48.4191 182.768 53.7851L194.354 68.4764C195.114 69.441 195.427 70.6866 195.212 71.8955C194.999 73.1014 194.277 74.1613 193.236 74.802C174.047 86.6137 153.752 95.9789 132.915 102.638C112.078 109.297 90.1135 113.438 67.6304 114.944C67.535 114.95 67.4397 114.954 67.3443 114.954L67.3453 114.956ZM130.474 29.4216C130.412 29.4216 130.351 29.4216 130.29 29.4216C123.579 29.4404 116.925 30.4894 110.513 32.5386C104.101 34.5879 98.0711 37.5927 92.5928 41.4697C87.2318 45.2642 82.4807 49.8326 78.4716 55.0486C74.4625 60.2646 71.27 66.0309 68.9833 72.1885C66.646 78.4793 65.2941 85.079 64.9633 91.8019L64.0444 110.489C63.9978 111.433 64.3583 112.354 65.0318 113.016C65.7033 113.675 66.6271 114.018 67.5648 113.955C89.9675 112.454 111.853 108.329 132.613 101.695C153.374 95.06 173.595 85.7277 192.716 73.9587C193.517 73.466 194.07 72.6514 194.235 71.7246C194.4 70.7949 194.159 69.8353 193.574 69.0943L181.988 54.4029C177.819 49.1174 172.89 44.5252 167.338 40.7555C161.905 37.0663 155.96 34.2194 149.669 32.2953C143.437 30.3891 136.98 29.4226 130.474 29.4226V29.4216Z" fill="#535A63"/>
<path d="M185.618 58.2034C148.246 80.8286 107.776 93.7618 64.2092 97.004L63.5476 110.465C63.4364 112.736 65.3287 114.602 67.5975 114.45C112.694 111.429 154.486 98.0728 192.976 74.3809C194.913 73.1889 195.372 70.5704 193.963 68.7854L185.618 58.2034Z" fill="#FFA66A"/>
<path d="M67.3453 114.956C66.2248 114.956 65.1411 114.515 64.3355 113.724C63.4594 112.864 62.9915 111.667 63.0521 110.44L63.7137 96.9792C63.7256 96.7288 63.9233 96.5272 64.1726 96.5083C85.8153 94.8971 106.982 90.8235 127.085 84.3986C147.188 77.9737 166.795 69.0178 185.361 57.7783C185.576 57.6481 185.853 57.6988 186.009 57.8955L194.354 68.4775C195.114 69.441 195.427 70.6876 195.212 71.8965C194.999 73.1024 194.277 74.1623 193.236 74.803C174.047 86.6147 153.752 95.9799 132.915 102.639C112.078 109.298 90.1135 113.439 67.6304 114.945C67.535 114.951 67.4397 114.955 67.3443 114.955L67.3453 114.956ZM64.6842 97.4669L64.0435 110.489C63.9968 111.433 64.3573 112.354 65.0308 113.016C65.7023 113.675 66.6261 114.018 67.5638 113.955C89.9665 112.454 111.852 108.329 132.612 101.695C153.373 95.06 173.594 85.7277 192.715 73.9587C193.516 73.466 194.069 72.6514 194.234 71.7247C194.399 70.7949 194.158 69.8353 193.573 69.0943L185.499 58.857C166.979 70.03 147.429 78.9422 127.387 85.3472C107.346 91.7522 86.2514 95.8299 64.6832 97.4689L64.6842 97.4669Z" fill="#535A63"/>
<path d="M209.493 28.9606V28.9249C209.491 28.9308 209.489 28.9368 209.488 28.9427C209.486 28.9368 209.485 28.9308 209.484 28.9249V28.9606C209.016 30.6582 207.934 31.8721 206.238 32.6022C207.934 33.3323 209.016 34.5461 209.484 36.2437V36.2795C209.486 36.2735 209.487 36.2676 209.488 36.2616C209.49 36.2676 209.492 36.2735 209.493 36.2795V36.2437C209.961 34.5461 211.043 33.3323 212.739 32.6022C211.043 31.8721 209.961 30.6582 209.493 28.9606Z" fill="#393F4F"/>
<path d="M266.075 66.0666V66.0309C266.073 66.0368 266.071 66.0428 266.07 66.0488C266.069 66.0428 266.067 66.0368 266.066 66.0309V66.0666C265.598 67.7642 264.516 68.9781 262.82 69.7082C264.516 70.4383 265.598 71.6522 266.066 73.3498V73.3855C266.068 73.3796 266.07 73.3736 266.07 73.3676C266.072 73.3736 266.074 73.3796 266.075 73.3855V73.3498C266.543 71.6522 267.625 70.4383 269.321 69.7082C267.625 68.9781 266.543 67.7642 266.075 66.0666Z" fill="#393F4F"/>
<path d="M53.1692 164.632V164.596C53.1672 164.602 53.1652 164.608 53.1642 164.614C53.1623 164.608 53.1603 164.602 53.1593 164.596V164.632C52.6914 166.33 51.6097 167.544 49.9141 168.274C51.6097 169.004 52.6914 170.218 53.1593 171.915V171.951C53.1613 171.945 53.1633 171.939 53.1642 171.933C53.1662 171.939 53.1682 171.945 53.1692 171.951V171.915C53.6371 170.218 54.7188 169.004 56.4144 168.274C54.7188 167.544 53.6371 166.33 53.1692 164.632Z" fill="#393F4F"/>
<path d="M71.6575 16.1307V16.095C71.6555 16.1009 71.6535 16.1069 71.6525 16.1129C71.6505 16.1069 71.6486 16.1009 71.6476 16.095V16.1307C71.1797 17.8283 70.098 19.0422 68.4023 19.7723C70.098 20.5024 71.1797 21.7162 71.6476 23.4139V23.4496C71.6496 23.4437 71.6515 23.4377 71.6525 23.4317C71.6545 23.4377 71.6565 23.4437 71.6575 23.4496V23.4139C72.1254 21.7162 73.2071 20.5024 74.9027 19.7723C73.2071 19.0422 72.1254 17.8283 71.6575 16.1307Z" fill="#393F4F"/>
<path d="M30.7356 87.1978V87.162C30.7336 87.168 30.7316 87.174 30.7307 87.1799C30.7287 87.174 30.7267 87.168 30.7257 87.162V87.1978C30.2578 88.8954 29.1761 90.1093 27.4805 90.8394C29.1761 91.5695 30.2578 92.7833 30.7257 94.4809V94.5167C30.7277 94.5107 30.7297 94.5048 30.7307 94.4988C30.7326 94.5048 30.7346 94.5107 30.7356 94.5167V94.4809C31.2035 92.7833 32.2852 91.5695 33.9808 90.8394C32.2852 90.1093 31.2035 88.8954 30.7356 87.1978Z" fill="#393F4F"/>
<path d="M41.8345 36.0123V35.9398C41.8315 35.9527 41.8276 35.9637 41.8246 35.9766C41.8216 35.9637 41.8176 35.9527 41.8147 35.9398V36.0123C40.8789 39.4066 38.7155 41.8353 35.3242 43.2955C38.7155 44.7557 40.8779 47.1844 41.8147 50.5786V50.6511C41.8176 50.6382 41.8216 50.6272 41.8246 50.6143C41.8276 50.6272 41.8315 50.6382 41.8345 50.6511V50.5786C42.7702 47.1844 44.9337 44.7557 48.325 43.2955C44.9337 41.8353 42.7712 39.4066 41.8345 36.0123Z" fill="#393F4F"/>
<path d="M252.202 12.4892V12.4167C252.199 12.4296 252.195 12.4405 252.192 12.4534C252.189 12.4405 252.185 12.4296 252.182 12.4167V12.4892C251.246 15.8834 249.083 18.3121 245.691 19.7723C249.083 21.2325 251.245 23.6612 252.182 27.0554V27.128C252.185 27.115 252.189 27.1041 252.192 27.0912C252.195 27.1041 252.199 27.115 252.202 27.128V27.0554C253.137 23.6612 255.301 21.2325 258.692 19.7723C255.301 18.3121 253.138 15.8834 252.202 12.4892Z" fill="#393F4F"/>
<path d="M240.284 115.691V115.618C240.281 115.631 240.277 115.642 240.274 115.655C240.271 115.642 240.267 115.631 240.264 115.618V115.691C239.328 119.085 237.165 121.513 233.773 122.974C237.165 124.434 239.327 126.863 240.264 130.257V130.329C240.267 130.316 240.271 130.305 240.274 130.293C240.277 130.305 240.281 130.316 240.284 130.329V130.257C241.219 126.863 243.383 124.434 246.774 122.974C243.383 121.513 241.22 119.085 240.284 115.691Z" fill="#393F4F"/>
<path d="M186.679 285.157C231.099 285.157 267.108 278.216 267.108 269.653C267.108 261.091 231.099 254.149 186.679 254.149C142.259 254.149 106.25 261.091 106.25 269.653C106.25 278.216 142.259 285.157 186.679 285.157Z" fill="#E6E6E6"/>
<path d="M31.0585 253.465L27.4805 242.268L41.3991 197.4L56.896 192.447L68.3571 228.31L75.0105 226.183L78.8477 238.191L72.1944 240.318L75.5657 250.866L61.6909 255.301L58.3195 244.752L31.0575 253.465H31.0585ZM48.8699 211.823L41.8252 236.789L55.4567 232.432L48.8699 211.823Z" fill="#393F4F"/>
<path d="M233.773 176.875L234.967 165.18L265.656 129.612L281.842 131.265L278.018 168.72L284.966 169.429L283.685 181.971L276.737 181.261L275.613 192.278L261.122 190.798L262.246 179.782L233.773 176.875ZM266.741 145.82L250.307 165.891L264.544 167.344L266.741 145.82Z" fill="#393F4F"/>
<path d="M153.408 166.614C159.211 163.123 165.919 163.161 173.531 166.725C181.142 170.289 185.465 175.417 186.502 182.11C187.538 188.802 185.984 196.573 181.843 205.417C177.653 214.365 172.656 220.585 166.852 224.075C161.046 227.565 154.34 227.528 146.729 223.964C139.117 220.4 134.793 215.271 133.758 208.579C132.721 201.886 134.299 194.066 138.489 185.118C142.63 176.273 147.603 170.103 153.408 166.614ZM172.803 186.559C172.983 183.226 171.3 180.729 167.752 179.067C164.203 177.405 161.205 177.711 158.763 179.984C156.318 182.258 153.881 185.991 151.449 191.185C149.811 194.682 148.662 197.671 148.002 200.153C147.341 202.634 147.31 204.877 147.909 206.881C148.506 208.885 150.039 210.464 152.508 211.621C154.976 212.777 157.171 212.943 159.094 212.118C161.015 211.294 162.717 209.834 164.201 207.738C165.683 205.643 167.244 202.847 168.882 199.348C171.314 194.154 172.62 189.891 172.802 186.558L172.803 186.559Z" fill="#393F4F"/>
</svg>
