<svg width="174" height="174" viewBox="0 0 174 174" fill="none" xmlns="http://www.w3.org/2000/svg">
<path d="M114.932 70.7513L119.502 68.9028C120.146 68.6422 120.881 68.9537 121.141 69.5978L121.642 70.8361C122.413 72.741 121.492 74.9136 119.587 75.6842C117.682 76.4548 115.509 75.5337 114.739 73.6288L114.238 72.3905C113.977 71.7464 114.289 71.0116 114.933 70.7511L114.932 70.7513Z" fill="white"/>
<path d="M118.194 76.2544C117.663 76.2544 117.132 76.1477 116.628 75.9336C115.641 75.5149 114.876 74.7371 114.474 73.7436L113.973 72.5053C113.818 72.1219 113.822 71.7008 113.983 71.3198C114.144 70.9387 114.445 70.6435 114.828 70.4886L119.397 68.6401C119.781 68.4853 120.202 68.4888 120.583 68.65C120.964 68.8113 121.259 69.1117 121.414 69.4951L121.915 70.7334C122.317 71.7275 122.308 72.8179 121.889 73.8051C121.471 74.7922 120.693 75.5572 119.699 75.9592C119.213 76.1558 118.704 76.2544 118.194 76.2544H118.194ZM119.979 69.1065C119.856 69.1065 119.733 69.1302 119.615 69.1778L115.046 71.0263C114.806 71.1231 114.619 71.3082 114.517 71.5465C114.416 71.7849 114.414 72.0482 114.511 72.2883L115.012 73.5266C115.356 74.3769 116.01 75.0422 116.854 75.4001C117.699 75.7579 118.632 75.766 119.482 75.4221C121.238 74.7122 122.088 72.7065 121.378 70.9515L120.877 69.7131C120.78 69.473 120.595 69.2857 120.357 69.1842C120.235 69.1326 120.107 69.1071 119.979 69.1071V69.1065Z" fill="black"/>
<path d="M58.3928 117.409V117.388C58.3917 117.391 58.3905 117.395 58.3899 117.398C58.3888 117.395 58.3876 117.391 58.3871 117.388V117.409C58.1139 118.4 57.4822 119.109 56.4922 119.535C57.4822 119.961 58.1139 120.67 58.3871 121.661V121.682C58.3882 121.679 58.3894 121.675 58.3899 121.672C58.3911 121.675 58.3923 121.679 58.3928 121.682V121.661C58.666 120.67 59.2977 119.961 60.2877 119.535C59.2977 119.109 58.666 118.4 58.3928 117.409Z" fill="#BABABA"/>
<path d="M31.2288 139.277V139.256C31.2276 139.26 31.2265 139.263 31.2259 139.267C31.2247 139.263 31.2236 139.26 31.223 139.256V139.277C30.9498 140.268 30.3182 140.977 29.3281 141.403C30.3182 141.83 30.9498 142.539 31.223 143.53V143.551C31.2241 143.547 31.2253 143.544 31.2259 143.54C31.227 143.544 31.2282 143.547 31.2288 143.551V143.53C31.502 142.539 32.1336 141.83 33.1236 141.403C32.1336 140.977 31.502 140.268 31.2288 139.277Z" fill="#BABABA"/>
<path d="M29.3303 25.4266V25.4058C29.3292 25.4092 29.328 25.4127 29.3274 25.4162C29.3263 25.4127 29.3251 25.4092 29.3245 25.4058V25.4266C29.0514 26.4179 28.4197 27.1266 27.4297 27.5529C28.4197 27.9792 29.0514 28.688 29.3245 29.6792V29.7001C29.3257 29.6966 29.3269 29.6931 29.3274 29.6896C29.3286 29.6931 29.3298 29.6966 29.3303 29.7001V29.6792C29.6035 28.688 30.2351 27.9792 31.2252 27.5529C30.2351 27.1266 29.6035 26.4179 29.3303 25.4266Z" fill="#BABABA"/>
<path d="M139.541 12.7971V12.7762C139.54 12.7797 139.539 12.7832 139.538 12.7867C139.537 12.7832 139.536 12.7797 139.535 12.7762V12.7971C139.262 13.7883 138.631 14.4971 137.641 14.9234C138.631 15.3497 139.262 16.0585 139.535 17.0497V17.0706C139.537 17.0671 139.538 17.0636 139.538 17.0601C139.54 17.0636 139.541 17.0671 139.541 17.0706V17.0497C139.814 16.0585 140.446 15.3497 141.436 14.9234C140.446 14.4971 139.814 13.7883 139.541 12.7971Z" fill="#BABABA"/>
<path d="M55.0123 143.417V143.375C55.0105 143.382 55.0082 143.389 55.0065 143.396C55.0047 143.389 55.0024 143.382 55.0007 143.375V143.417C54.4543 145.399 53.1911 146.817 51.2109 147.67C53.1911 148.522 54.4537 149.94 55.0007 151.922V151.965C55.0024 151.957 55.0047 151.951 55.0065 151.943C55.0082 151.951 55.0105 151.957 55.0123 151.965V151.922C55.5586 149.94 56.8219 148.522 58.802 147.67C56.8219 146.817 55.5592 145.399 55.0123 143.417Z" fill="#BABABA"/>
<path d="M33.2779 108.89V108.847C33.2761 108.855 33.2738 108.861 33.2721 108.869C33.2703 108.861 33.268 108.855 33.2663 108.847V108.89C32.7199 110.872 31.4567 112.29 29.4766 113.142C31.4567 113.995 32.7193 115.413 33.2663 117.395V117.437C33.268 117.43 33.2703 117.423 33.2721 117.416C33.2738 117.423 33.2761 117.43 33.2779 117.437V117.395C33.8242 115.413 35.0875 113.995 37.0676 113.142C35.0875 112.29 33.8248 110.872 33.2779 108.89Z" fill="#BABABA"/>
<path d="M158.262 27.5953V27.5529C158.261 27.5605 158.258 27.5668 158.256 27.5744C158.255 27.5668 158.252 27.5605 158.251 27.5529V27.5953C157.704 29.5771 156.441 30.9952 154.461 31.8478C156.441 32.7004 157.704 34.1185 158.251 36.1004V36.1427C158.252 36.1352 158.255 36.1288 158.256 36.1213C158.258 36.1288 158.261 36.1352 158.262 36.1427V36.1004C158.809 34.1185 160.072 32.7004 162.052 31.8478C160.072 30.9952 158.809 29.5771 158.262 27.5953Z" fill="#BABABA"/>
<path d="M29.3255 72.7726L18.3142 77.8256C16.2291 78.7826 13.7995 77.5321 13.3651 75.28L7.90904 46.9789C7.47462 44.7262 9.26624 42.6625 11.5572 42.7756L23.6578 43.373L29.3255 72.7726Z" fill="#393F4F"/>
<path d="M16.8389 78.4404C16.2398 78.4404 15.6412 78.2977 15.0891 78.0141C14.0369 77.473 13.3056 76.4962 13.0811 75.3351L7.62504 47.034C7.40116 45.8722 7.71726 44.6937 8.49272 43.8005C9.26818 42.9073 10.3905 42.4288 11.5719 42.4862L23.6725 43.0836C23.8059 43.09 23.9178 43.1868 23.9428 43.3185L29.6105 72.7181C29.636 72.8492 29.5682 72.9809 29.447 73.0365L18.4357 78.0895C17.9247 78.3238 17.3812 78.441 16.8383 78.441L16.8389 78.4404ZM11.3805 43.0616C10.4386 43.0616 9.55354 43.4641 8.93178 44.1804C8.27406 44.9384 8.00552 45.9384 8.19576 46.9238L13.6518 75.2249C13.8421 76.2103 14.4627 77.0391 15.3553 77.4979C16.2479 77.9573 17.2832 77.9805 18.1955 77.5617L28.9998 72.6039L23.4184 43.6514L11.5453 43.0656C11.4907 43.0627 11.4356 43.0616 11.3817 43.0616H11.3805Z" fill="black"/>
<path d="M123.959 48.7171C104.265 56.7472 51.0336 70.7188 34.7657 74.918C32.172 75.5873 29.5509 73.9303 29.044 71.2994L23.7254 43.7123C23.2429 41.2078 24.8686 38.7817 27.369 38.2794C57.127 32.3025 87.9041 24.65 122.415 26.4584C132.585 26.9915 141.364 29.7992 142.236 34.3186C142.878 37.6466 134.425 44.4495 123.959 48.7171Z" fill="white"/>
<path d="M33.5913 75.3588C32.6715 75.3588 31.7696 75.099 30.9674 74.5915C29.8039 73.856 29.0198 72.7059 28.7594 71.3545L23.4408 43.7674C22.9298 41.1162 24.6663 38.5265 27.3123 37.9952C31.0376 37.247 34.8534 36.4571 38.5434 35.6932C64.9247 30.2319 92.2044 24.5845 122.431 26.169C127.613 26.4405 132.402 27.3116 135.914 28.6218C139.805 30.073 142.09 32.0235 142.521 34.2635C142.856 35.9983 141.053 38.53 137.443 41.3929C133.916 44.1908 129.041 46.9585 124.068 48.9856C104.341 57.0297 50.7831 71.0831 34.8383 75.1987C34.4242 75.3055 34.006 75.3582 33.5913 75.3582V75.3588ZM111.986 26.4782C85.9184 26.4782 61.9394 31.4424 38.6605 36.261C34.97 37.0249 31.1536 37.8148 27.4259 38.5636C25.0914 39.0323 23.5591 41.3175 24.0097 43.6572L29.3283 71.2443C29.558 72.4374 30.2505 73.4518 31.2771 74.1008C32.3037 74.7498 33.5171 74.9401 34.6928 74.6367C50.6288 70.5234 104.155 56.4787 123.849 48.448C128.773 46.44 133.597 43.703 137.083 40.9376C140.415 38.2951 142.235 35.8411 141.952 34.3725C141.56 32.342 139.402 30.5411 135.711 29.1641C132.252 27.8742 127.525 27.0158 122.4 26.7467C118.89 26.5628 115.42 26.4764 111.986 26.4764V26.4782Z" fill="black"/>
<path d="M44.2656 34.8632C44.2656 34.8632 51.8265 44.3161 70.4857 40.6951C81.3102 38.5944 82.3038 34.695 85.6741 31.8002C89.0445 28.906 92.8395 27.0123 92.8395 27.0123C92.8395 27.0123 86.4861 20.8092 68.4963 22.4501C54.9336 23.6866 44.2656 34.8632 44.2656 34.8632Z" fill="#393F4F"/>
<path d="M62.3256 41.8105C61.0096 41.8105 59.729 41.7403 58.4855 41.5994C55.5066 41.2624 52.7394 40.5229 50.2599 39.4012C46.0224 37.4837 44.1189 35.1428 44.04 35.0442C43.9495 34.9311 43.9565 34.7681 44.0568 34.6626C44.0835 34.6341 46.7956 31.8119 51.1334 28.88C53.6819 27.1574 56.2873 25.7323 58.877 24.6436C62.1197 23.2812 65.3474 22.4454 68.4707 22.1607C72.594 21.7848 76.4469 21.7918 79.9228 22.1821C82.7097 22.4947 85.2629 23.0533 87.511 23.8421C91.3645 25.1935 92.9763 26.7392 93.043 26.8047C93.1103 26.8703 93.1416 26.9642 93.1271 27.057C93.1126 27.1498 93.0541 27.2299 92.97 27.2716C92.9323 27.2902 89.1663 29.1839 85.8644 32.0201C85.126 32.654 84.5083 33.3326 83.8541 34.0507C81.6008 36.5249 79.047 39.3287 70.5419 40.9793C67.6912 41.5327 64.9409 41.8099 62.3256 41.8099V41.8105ZM44.6594 34.8777C45.4552 35.7675 47.4771 37.5115 50.5337 38.8884C52.9563 39.98 55.6632 40.6992 58.5777 41.0263C62.2265 41.4358 66.2146 41.2282 70.4312 40.4104C74.1559 39.6877 77.0292 38.686 79.2152 37.3491C81.1333 36.1758 82.2979 34.8969 83.4249 33.6603C84.0913 32.9284 84.7206 32.237 85.4862 31.5804C88.2197 29.2326 91.2648 27.521 92.3238 26.9555C91.694 26.4602 90.0897 25.3553 87.2709 24.3734C85.0645 23.6043 82.5572 23.0602 79.8185 22.7552C76.3918 22.3735 72.5916 22.3683 68.5235 22.7395C65.4623 23.0185 62.2949 23.8386 59.1095 25.1761C56.5564 26.2485 53.9858 27.6538 51.4704 29.3532C47.8169 31.8211 45.3328 34.2078 44.66 34.8783L44.6594 34.8777Z" fill="black"/>
<path d="M79.1646 37.9007C79.1646 37.9007 84.3986 35.9647 89.3657 32.9562C96.5652 28.5964 97.6806 26.669 97.6806 26.669L88.9933 24.7307C88.9933 24.7307 88.0937 27.3969 85.7291 30.9976C82.6272 35.7211 79.1641 37.9007 79.1641 37.9007H79.1646Z" fill="white"/>
<path d="M79.1653 38.1907C79.0575 38.1907 78.9554 38.1304 78.9049 38.0289C78.8394 37.8955 78.8846 37.7342 79.0105 37.6553C79.0447 37.6339 82.4609 35.4479 85.4879 30.8386C87.805 27.3105 88.711 24.6645 88.7197 24.6384C88.7672 24.498 88.9128 24.4157 89.0578 24.4482L97.7451 26.3865C97.8349 26.4068 97.9103 26.4683 97.9475 26.553C97.9846 26.6377 97.9794 26.7345 97.933 26.8146C97.886 26.8958 96.6982 28.8562 89.5172 33.205C84.5831 36.1932 79.319 38.1536 79.2663 38.1733C79.2332 38.1855 79.199 38.1913 79.1659 38.1913L79.1653 38.1907ZM89.1802 25.0693C88.9012 25.8123 87.9477 28.1486 85.9722 31.1564C84.2055 33.8465 82.3391 35.7106 81.0335 36.8335C83.0049 35.9983 86.1746 34.55 89.2162 32.7079C92.8615 30.5005 94.8984 28.9385 95.9662 28.0169C96.5822 27.485 96.9557 27.0988 97.1714 26.8517L89.1802 25.0688V25.0693Z" fill="black"/>
<path d="M49.3552 83.2011L29.7333 86.9838C28.1928 87.2808 26.9846 86.0303 27.6023 84.7787L41.3089 57.0326C41.7323 56.1748 42.6278 55.5328 43.6834 55.3292L83.4679 47.6593C84.5259 47.4551 85.2224 48.4718 84.5247 49.2015L54.7695 80.3208C53.3799 81.7743 51.4618 82.7945 49.3547 83.2005L49.3552 83.2011Z" fill="white"/>
<path d="M29.2729 87.3185C28.5566 87.3185 27.907 87.0238 27.5045 86.4954C27.0961 85.9601 27.0352 85.2705 27.3415 84.6505L41.048 56.9044C41.5138 55.9613 42.4783 55.2665 43.6279 55.0449L83.4124 47.375C84.0579 47.2503 84.6785 47.5096 84.9564 48.02C85.2029 48.4718 85.117 49.0013 84.7336 49.4027L54.9785 80.522C53.5494 82.0167 51.5716 83.0694 49.4087 83.4858L29.7868 87.2686C29.6133 87.3022 29.4411 87.3185 29.2729 87.3185ZM83.7372 47.9231C83.6688 47.9231 83.5974 47.9301 83.522 47.944L43.7375 55.6139C42.7648 55.8013 41.954 56.3795 41.5677 57.1608L27.8612 84.9068C27.6518 85.3308 27.6895 85.7815 27.965 86.1434C28.3223 86.612 28.9945 86.8301 29.6766 86.699L49.298 82.9163C51.3436 82.5219 53.2118 81.5289 54.5586 80.1207L84.3137 49.0013C84.5225 48.7827 84.5712 48.5257 84.4465 48.2972C84.3375 48.0971 84.084 47.9231 83.7366 47.9231H83.7372Z" fill="black"/>
<path d="M122.417 26.4584C119.854 26.3239 117.312 26.2421 114.789 26.2079C117.79 34.0106 119.34 42.0929 119.438 50.4554C121.089 49.851 122.605 49.2698 123.961 48.7171C134.427 44.4495 142.88 37.6466 142.238 34.3186C141.367 29.7992 132.588 26.9915 122.417 26.4584Z" fill="#FFA66A"/>
<path d="M119.439 50.7454C119.381 50.7454 119.324 50.728 119.274 50.6938C119.197 50.6404 119.15 50.5528 119.149 50.4583C119.052 42.1707 117.495 34.0466 114.519 26.3111C114.485 26.2212 114.497 26.1203 114.552 26.0414C114.607 25.9626 114.699 25.915 114.794 25.9173C117.354 25.9521 119.924 26.0368 122.432 26.1685C127.615 26.4399 132.404 27.3111 135.916 28.6213C139.807 30.0724 142.091 32.023 142.523 34.2629C142.858 35.9977 141.054 38.5294 137.445 41.3923C133.917 44.1902 129.043 46.958 124.07 48.9851C122.744 49.5262 121.219 50.112 119.538 50.7274C119.505 50.739 119.471 50.7448 119.438 50.7448L119.439 50.7454ZM115.214 26.5037C118.066 34.0553 119.582 41.97 119.723 50.0418C121.246 49.4804 122.634 48.9451 123.852 48.448C128.776 46.44 133.6 43.703 137.086 40.9376C140.418 38.2951 142.238 35.8411 141.955 34.3726C141.563 32.342 139.405 30.5411 135.714 29.1647C132.255 27.8748 127.528 27.0164 122.403 26.7473C120.041 26.6238 117.625 26.5414 115.214 26.5031V26.5037Z" fill="black"/>
<path d="M33.2734 73.2993C33.2734 73.2993 56.3255 67.479 64.1979 67.3374C64.8597 67.3258 66.8148 67.7452 66.8148 67.7452L76.7369 57.3684C76.7369 57.3684 73.4471 57.2054 72.3562 57.3011C63.6161 58.0679 37.8955 63.9444 37.8955 63.9444L33.274 73.2993H33.2734Z" fill="#FFA66A"/>
<path d="M33.2745 73.5892C33.1881 73.5892 33.1046 73.5504 33.0489 73.4814C32.9776 73.3932 32.9642 73.272 33.0147 73.1705L37.6361 63.8157C37.675 63.7374 37.7463 63.6805 37.8316 63.6614C38.0891 63.6028 63.6717 57.7715 72.3317 57.0117C73.4302 56.9154 76.6173 57.072 76.7525 57.0784C76.8662 57.0842 76.9653 57.1555 77.0077 57.2605C77.0494 57.3661 77.0262 57.4861 76.9479 57.5685L67.0259 67.9453C66.9563 68.0178 66.8542 68.0497 66.7556 68.0282C66.2208 67.9134 64.7204 67.6187 64.2048 67.6268C56.456 67.766 33.5761 73.522 33.3459 73.58C33.3221 73.5858 33.2983 73.5887 33.2751 73.5887L33.2745 73.5892ZM38.0949 64.1967L33.8122 72.8666C37.5195 71.9478 57.0963 67.175 64.1943 67.0474C64.7743 67.0358 66.2307 67.327 66.7179 67.4279L76.0866 57.6294C75.0786 57.5876 73.1518 57.5221 72.3822 57.5894C64.0859 58.3173 40.1174 63.7368 38.0949 64.1961V64.1967Z" fill="black"/>
<path d="M128.251 107.066L121.08 110.565C121.08 110.565 117.369 102.952 112.544 99.1017C107.719 95.2517 93.1337 93.3672 93.1337 93.3672L91.4267 101.254C91.4267 101.254 99.7747 102.591 103.933 105.055C109.609 108.42 112.105 116.006 112.105 116.006C112.105 116.006 104.16 113.391 99.5247 114.063C94.8893 114.736 88.7344 118.724 88.7344 118.724L92.6331 127.038C92.6331 127.038 99.0323 122.79 104.617 124.4C110.201 126.009 113.267 129.149 115.735 130.814C118.534 132.703 124.329 130.509 126.676 129.414C129.022 128.318 135.845 126.427 135.845 126.427L128.25 107.066L128.251 107.066Z" fill="white"/>
<path d="M118.671 131.844C117.506 131.844 116.42 131.626 115.574 131.055C115.007 130.673 114.405 130.21 113.767 129.72C111.556 128.022 108.804 125.908 104.537 124.679C102.989 124.232 100.363 123.992 96.6456 125.383C94.4021 126.221 92.81 127.27 92.7944 127.28C92.7242 127.327 92.6372 127.341 92.556 127.318C92.4748 127.295 92.4075 127.238 92.3715 127.162L88.4728 118.848C88.4113 118.717 88.456 118.56 88.5778 118.481C88.5934 118.471 90.1536 117.464 92.2608 116.388C95.0999 114.939 97.5306 114.06 99.4841 113.777C103.468 113.199 109.717 114.968 111.631 115.553C111.352 114.831 110.778 113.467 109.89 111.927C108.692 109.846 106.66 107.009 103.786 105.305C99.7236 102.898 91.4644 101.554 91.3815 101.541C91.3026 101.528 91.233 101.484 91.1878 101.418C91.1431 101.352 91.1269 101.27 91.1437 101.193L92.8506 93.3057C92.8825 93.1584 93.0217 93.0604 93.1714 93.0795C93.2079 93.0842 96.8799 93.5633 101.094 94.5075C106.776 95.7812 110.69 97.2503 112.725 98.8749C115.249 100.889 117.457 103.927 118.866 106.12C120.063 107.985 120.902 109.575 121.211 110.179L128.124 106.805C128.197 106.77 128.282 106.766 128.357 106.795C128.432 106.825 128.492 106.884 128.522 106.96L136.117 126.321C136.147 126.398 136.143 126.483 136.106 126.557C136.07 126.63 136.004 126.685 135.924 126.706C135.856 126.725 129.098 128.603 126.8 129.676C125.834 130.126 121.941 131.843 118.672 131.843L118.671 131.844ZM101.931 123.749C102.849 123.749 103.783 123.857 104.698 124.121C109.07 125.381 111.87 127.532 114.12 129.26C114.751 129.744 115.346 130.201 115.898 130.574C117.046 131.348 118.868 131.474 121.315 130.949C123.632 130.452 125.751 129.526 126.554 129.151C128.637 128.179 134.084 126.622 135.459 126.235L128.096 107.464L121.207 110.825C121.138 110.859 121.058 110.864 120.986 110.839C120.913 110.814 120.853 110.761 120.819 110.691C120.782 110.616 117.081 103.091 112.364 99.3273C108.011 95.8537 95.3516 93.9681 93.3604 93.6897L91.7747 101.017C92.4481 101.135 94.173 101.451 96.1903 101.948C99.6772 102.807 102.332 103.768 104.081 104.805C107.068 106.575 109.165 109.502 110.399 111.647C111.732 113.964 112.355 115.836 112.38 115.915C112.415 116.019 112.387 116.133 112.31 116.211C112.233 116.288 112.118 116.315 112.014 116.281C111.995 116.275 110.008 115.624 107.485 115.064C104.164 114.327 101.426 114.08 99.5664 114.349C95.5256 114.936 90.2267 118.133 89.1061 118.832L92.7566 126.617C93.3175 126.274 94.6631 125.504 96.4292 124.843C97.9065 124.289 99.8762 123.748 101.93 123.748L101.931 123.749Z" fill="black"/>
<path d="M119.606 118.859C119.606 118.859 115.225 116.767 112.102 116.007L119.606 118.859Z" fill="white"/>
<path d="M119.607 119.149C119.565 119.149 119.523 119.14 119.483 119.12C119.439 119.1 115.092 117.033 112.034 116.288C111.879 116.251 111.783 116.093 111.821 115.938C111.858 115.783 112.016 115.687 112.171 115.725C115.289 116.483 119.688 118.576 119.732 118.597C119.876 118.666 119.938 118.839 119.869 118.984C119.819 119.088 119.715 119.149 119.607 119.149H119.607Z" fill="black"/>
<path d="M131.293 104.639C131.293 104.639 130.029 98.4521 133.055 93.1079C136.082 87.7638 145.879 82.2324 145.879 82.2324L149.472 87.6217C149.472 87.6217 143.193 91.6516 141.179 94.9808C139.813 97.2375 141.033 102.69 141.033 102.69L131.294 104.639H131.293Z" fill="white"/>
<path d="M131.294 104.929C131.159 104.929 131.038 104.834 131.01 104.697C130.997 104.633 130.688 103.092 130.75 100.869C130.808 98.8152 131.211 95.7771 132.804 92.9647C134.079 90.712 136.646 88.1774 140.432 85.4311C143.241 83.3941 145.712 81.9934 145.737 81.9795C145.869 81.9047 146.037 81.9447 146.121 82.0711L149.714 87.4605C149.757 87.5255 149.773 87.6043 149.756 87.6809C149.74 87.7575 149.695 87.8236 149.629 87.8653C149.567 87.9054 143.384 91.8975 141.428 95.1304C140.138 97.2613 141.304 102.572 141.316 102.626C141.333 102.702 141.319 102.782 141.276 102.847C141.234 102.913 141.167 102.958 141.09 102.974L131.351 104.923C131.332 104.927 131.313 104.929 131.294 104.929ZM145.789 82.6192C144.29 83.4962 136.003 88.4929 133.309 93.2506C131.778 95.954 131.388 98.8859 131.331 100.87C131.284 102.487 131.445 103.755 131.529 104.296L140.689 102.463C140.453 101.28 139.691 96.8803 140.931 94.8306C141.785 93.42 143.458 91.7357 145.903 89.8246C147.295 88.7365 148.554 87.8816 149.069 87.54L145.789 82.6198V82.6192Z" fill="black"/>
<path d="M146.032 106.687L142.02 102.137C142.02 102.137 137.523 101.002 132.817 102.432C130.063 103.269 125.336 106.295 125.336 106.295C125.336 106.295 127.552 108.673 129.687 113.487C131.821 118.301 132.169 128.864 132.169 128.864L139.538 127.747C139.538 127.747 141.941 134.542 141.74 136.9C141.539 139.259 139.101 145.161 139.101 145.161L145.685 147.67C145.685 147.67 150.068 140.562 150.748 136.216C151.428 131.87 150.092 120.503 149.59 117.451C149.089 114.398 146.032 106.687 146.032 106.687H146.032Z" fill="white"/>
<path d="M145.686 147.96C145.651 147.96 145.616 147.953 145.582 147.941L138.998 145.431C138.925 145.403 138.867 145.347 138.835 145.275C138.804 145.203 138.803 145.122 138.834 145.049C138.858 144.991 141.258 139.162 141.452 136.875C141.625 134.844 139.754 129.263 139.344 128.07L132.213 129.15C132.132 129.163 132.048 129.139 131.984 129.087C131.921 129.034 131.883 128.956 131.88 128.873C131.876 128.768 131.509 118.311 129.422 113.604C127.753 109.839 125.882 107.305 125.125 106.492C125.066 106.429 125.038 106.344 125.049 106.258C125.06 106.172 125.108 106.097 125.18 106.05C125.375 105.925 129.973 102.994 132.734 102.154C137.463 100.717 141.905 101.808 142.092 101.855C142.149 101.869 142.2 101.9 142.239 101.944L146.251 106.494C146.273 106.519 146.291 106.548 146.303 106.579C146.428 106.895 149.377 114.355 149.878 117.402C150.157 119.105 150.612 122.811 150.903 126.323C151.169 129.542 151.409 133.879 151.036 136.26C150.75 138.093 149.802 140.597 148.221 143.704C147.049 146.008 145.944 147.804 145.933 147.822C145.879 147.909 145.785 147.96 145.686 147.96H145.686ZM139.483 144.995L145.563 147.312C146.279 146.119 149.863 140.001 150.463 136.171C151.109 132.045 149.881 120.999 149.306 117.497C148.836 114.633 146.038 107.489 145.782 106.84L141.866 102.398C141.228 102.255 137.124 101.426 132.903 102.709C130.604 103.408 126.84 105.699 125.779 106.359C126.405 107.102 128.197 109.408 129.953 113.369C130.85 115.393 131.545 118.616 132.018 122.949C132.297 125.511 132.412 127.722 132.447 128.529L139.496 127.46C139.633 127.439 139.766 127.519 139.813 127.65C139.912 127.931 142.234 134.532 142.03 136.925C141.851 139.034 139.972 143.786 139.483 144.995Z" fill="black"/>
<path d="M145.5 123.234C145.5 123.234 141.429 123.511 139.539 127.747L145.5 123.234Z" fill="white"/>
<path d="M139.54 128.037C139.5 128.037 139.46 128.029 139.422 128.012C139.276 127.947 139.21 127.775 139.275 127.629C140.287 125.36 141.916 124.208 143.104 123.64C144.394 123.025 145.438 122.948 145.481 122.945C145.641 122.934 145.779 123.055 145.79 123.215C145.801 123.374 145.681 123.513 145.521 123.524C145.505 123.525 144.522 123.602 143.333 124.175C141.744 124.94 140.557 126.182 139.806 127.866C139.758 127.974 139.652 128.037 139.541 128.037H139.54Z" fill="black"/>
<path d="M160.047 118.813C165.693 115.904 167.783 108.72 164.716 102.767C161.648 96.8137 154.586 94.3452 148.94 97.2536C143.295 100.162 141.205 107.346 144.272 113.299C147.339 119.253 154.402 121.721 160.047 118.813Z" fill="white"/>
<path d="M154.996 120.315C153.693 120.315 152.375 120.091 151.087 119.641C148.038 118.575 145.522 116.367 144.004 113.421C140.869 107.336 143.018 99.963 148.797 96.9859C151.598 95.5423 154.824 95.3352 157.88 96.403C160.929 97.469 163.445 99.6776 164.963 102.623C166.48 105.568 166.819 108.898 165.917 112.001C165.012 115.109 162.972 117.615 160.17 119.059C158.549 119.894 156.786 120.315 154.997 120.315L154.996 120.315ZM153.97 96.309C152.272 96.309 150.599 96.7086 149.062 97.5003C143.568 100.331 141.531 107.353 144.519 113.155C145.969 115.968 148.369 118.076 151.278 119.093C154.181 120.107 157.245 119.912 159.904 118.542C162.562 117.172 164.5 114.791 165.359 111.837C166.219 108.878 165.895 105.7 164.446 102.887C162.996 100.074 160.596 97.9649 157.687 96.9488C156.463 96.5207 155.209 96.3084 153.97 96.3084L153.97 96.309Z" fill="black"/>
<path d="M148.932 97.2434C143.344 100.122 141.241 107.189 144.173 113.105C147.719 115.693 152.39 115.994 157.414 114.237C160.99 112.986 164.327 110.466 166.119 108.395C166.098 106.505 165.643 104.573 164.706 102.756C161.639 96.8026 154.577 94.3347 148.932 97.2434Z" fill="#393F4F"/>
<path d="M151.374 115.635C150.984 115.635 150.599 115.62 150.22 115.589C147.886 115.403 145.796 114.646 144.005 113.339C143.968 113.312 143.937 113.275 143.917 113.233C142.465 110.304 142.169 107.007 143.084 103.952C144.001 100.887 146.032 98.4127 148.803 96.9853C154.581 94.0082 161.832 96.537 164.968 102.622C165.891 104.414 166.391 106.409 166.412 108.392C166.413 108.462 166.388 108.531 166.341 108.585C164.718 110.462 161.432 113.14 157.512 114.511C155.375 115.258 153.315 115.635 151.374 115.635ZM144.404 112.912C146.095 114.129 148.066 114.835 150.265 115.011C152.457 115.186 154.831 114.834 157.321 113.963C160.838 112.733 164.108 110.244 165.83 108.288C165.793 106.432 165.317 104.567 164.452 102.889C161.463 97.0874 154.562 94.6705 149.068 97.5015C146.439 98.8564 144.511 101.206 143.639 104.119C142.774 107.011 143.046 110.131 144.405 112.913L144.404 112.912Z" fill="black"/>
<path d="M157.657 116.651C158.51 116.212 159.059 115.414 159.214 114.537L159.608 114.334C159.608 114.334 159.012 112.827 158.931 112.67C158.183 111.218 156.4 110.648 154.949 111.396C153.498 112.144 152.993 113.895 153.675 115.378C153.863 115.785 154.353 117.042 154.353 117.042L155.031 116.692C155.836 117.075 156.804 117.091 157.657 116.651Z" fill="white"/>
<path d="M154.354 117.331C154.32 117.331 154.285 117.325 154.252 117.313C154.175 117.284 154.114 117.223 154.084 117.147C154.079 117.134 153.595 115.894 153.413 115.499C153.049 114.708 152.987 113.83 153.236 113.025C153.491 112.202 154.053 111.532 154.817 111.138C156.408 110.318 158.37 110.945 159.19 112.537C159.273 112.699 159.779 113.973 159.879 114.227C159.935 114.366 159.875 114.523 159.743 114.592L159.472 114.731C159.262 115.675 158.656 116.464 157.791 116.91C156.927 117.355 155.933 117.391 155.042 117.014L154.487 117.3C154.445 117.321 154.4 117.332 154.354 117.332V117.331ZM155.033 116.401C155.075 116.401 155.118 116.411 155.158 116.429C155.917 116.791 156.781 116.777 157.526 116.393C158.272 116.008 158.784 115.313 158.931 114.485C158.946 114.396 159.003 114.319 159.083 114.278L159.244 114.195C158.984 113.542 158.718 112.885 158.675 112.801C158.349 112.168 157.796 111.7 157.117 111.483C156.438 111.266 155.716 111.326 155.083 111.652C154.459 111.974 153.999 112.522 153.791 113.196C153.584 113.864 153.636 114.595 153.94 115.255C154.074 115.545 154.349 116.235 154.507 116.636L154.9 116.433C154.942 116.412 154.987 116.401 155.033 116.401V116.401Z" fill="black"/>
<path d="M156.98 118.644C158.612 118.644 159.936 117.32 159.936 115.687C159.936 114.055 158.612 112.731 156.98 112.731C155.347 112.731 154.023 114.055 154.023 115.687C154.023 117.32 155.347 118.644 156.98 118.644Z" fill="white"/>
<path d="M156.984 118.935C156.652 118.935 156.317 118.883 155.991 118.779C155.165 118.514 154.492 117.945 154.094 117.174C153.275 115.583 153.902 113.621 155.493 112.801C157.084 111.982 159.046 112.609 159.866 114.2C160.263 114.971 160.336 115.85 160.072 116.676C159.807 117.502 159.238 118.176 158.467 118.573C158.001 118.814 157.494 118.935 156.984 118.935ZM156.976 113.021C156.565 113.021 156.149 113.116 155.759 113.317C154.452 113.99 153.937 115.602 154.61 116.908C155.283 118.215 156.895 118.731 158.201 118.057C159.508 117.384 160.024 115.773 159.35 114.466C158.878 113.549 157.943 113.021 156.976 113.021Z" fill="black"/>
<path d="M131.949 97.6755C131.59 97.6755 131.38 97.5908 131.355 97.5798C131.208 97.5166 131.14 97.346 131.203 97.1987C131.266 97.0526 131.434 96.9847 131.581 97.0456C131.603 97.0543 131.965 97.1871 132.601 96.9905C133.214 96.8008 134.198 96.2574 135.396 94.7447C136.362 93.5267 136.767 92.2519 136.601 90.9562C136.477 89.9847 136.061 89.36 136.057 89.3536C135.967 89.2214 136.002 89.041 136.133 88.9511C136.266 88.8612 136.445 88.8949 136.535 89.0265C136.555 89.0555 137.025 89.7515 137.172 90.8512C137.307 91.8598 137.188 93.4165 135.85 95.1043C134.107 97.3031 132.7 97.6749 131.948 97.6749L131.949 97.6755Z" fill="black"/>
<path d="M95.2921 93.0604L93.5278 102.447C93.5278 102.447 89.2421 101.851 88.3426 101.782C87.443 101.712 85.163 102.258 83.2478 101.885C81.3327 101.512 80.1651 100.76 80.2724 99.4949C80.3797 98.2294 83.0651 84.6753 83.296 83.6018C83.604 82.1715 84.4339 82.1848 85.308 82.3739C86.1815 82.563 87.1043 84.7896 88.1732 87.1931C89.0391 89.1396 89.5548 91.5669 90.082 92.0135C90.6092 92.4601 95.2915 93.0604 95.2915 93.0604H95.2921Z" fill="#FFA66A"/>
<path d="M93.5288 102.737C93.5155 102.737 93.5021 102.735 93.4888 102.734C93.4459 102.728 89.2014 102.139 88.321 102.071C88.0339 102.049 87.5565 102.099 87.0038 102.157C85.9401 102.268 84.4837 102.421 83.1932 102.17C82.1567 101.968 81.361 101.661 80.8274 101.256C80.2074 100.785 79.9237 100.185 79.9846 99.4706C80.0914 98.2131 82.7599 84.7188 83.014 83.5409C83.1758 82.7886 83.4913 82.3217 83.9774 82.1141C84.4222 81.9238 84.9315 81.9957 85.3705 82.0909C86.2776 82.2875 87.0386 83.9121 88.205 86.547C88.2821 86.7216 88.3604 86.8985 88.4393 87.076C88.8198 87.9309 89.1312 88.8705 89.4062 89.6993C89.7147 90.6296 90.0337 91.5918 90.2709 91.7931C90.5667 92.039 93.0752 92.4845 95.3303 92.7733C95.4097 92.7837 95.4811 92.8261 95.5281 92.8905C95.575 92.9548 95.593 93.036 95.5785 93.1143L93.8142 102.5C93.7881 102.639 93.6668 102.737 93.5294 102.737L93.5288 102.737ZM88.1603 101.485C88.2334 101.485 88.3018 101.488 88.3656 101.492C89.1411 101.553 92.3276 101.988 93.2945 102.121L94.951 93.3081C93.5822 93.1265 90.4026 92.6643 89.8951 92.2345C89.5506 91.9427 89.2884 91.1887 88.8552 89.8808C88.5843 89.0648 88.2775 88.1397 87.9092 87.3109C87.8303 87.1328 87.752 86.9565 87.6743 86.7813C86.8083 84.8244 85.9128 82.8014 85.2476 82.6575C84.8972 82.5821 84.4999 82.5212 84.2047 82.6477C83.9043 82.7758 83.7001 83.1082 83.5806 83.6632C83.3278 84.8377 80.6679 98.2775 80.5623 99.5199C80.4765 100.53 81.3987 101.23 83.304 101.601C84.5086 101.835 85.8583 101.694 86.9429 101.581C87.4347 101.529 87.8425 101.486 88.1603 101.486V101.485Z" fill="black"/>
<path d="M91.3155 116.128C91.3155 116.128 86.4801 119.431 85.9407 119.543C85.4013 119.655 80.3611 117.821 78.1182 118.137C75.8753 118.452 74.6852 119.454 74.5437 120.11C74.4021 120.767 74.9769 126.042 77.0986 127.874C79.2202 129.707 82.8841 130.157 84.4849 130.503C86.0857 130.849 88.6446 131.117 89.5947 130.693C90.5447 130.269 91.736 128.467 92.6246 127.801C93.5126 127.134 95.836 125.92 95.836 125.92C94.2921 121.174 92.7818 117.773 91.3161 116.129L91.3155 116.128Z" fill="#FFA66A"/>
<path d="M88.0386 131.201C87.8002 131.201 87.5427 131.193 87.2661 131.176C86.3659 131.122 85.3033 130.976 84.4229 130.786C84.1915 130.736 83.9183 130.684 83.6022 130.624C81.7978 130.281 78.7772 129.708 76.9084 128.094C75.7148 127.063 75.0431 125.091 74.6899 123.618C74.2978 121.986 74.1755 120.439 74.2596 120.048C74.444 119.196 75.8145 118.167 78.0771 117.849C79.6025 117.634 82.2253 118.337 84.1404 118.85C84.8747 119.046 85.7064 119.268 85.8845 119.258C86.2511 119.155 88.8674 117.448 91.1509 115.888C91.2715 115.806 91.4339 115.826 91.5308 115.934C92.9721 117.551 94.4697 120.787 96.1099 125.83C96.1534 125.964 96.0937 126.111 95.9684 126.177C95.9452 126.189 93.6559 127.388 92.7969 128.032C92.4489 128.293 92.04 128.753 91.6068 129.24C90.9752 129.951 90.3215 130.686 89.7113 130.958C89.3488 131.119 88.7874 131.201 88.0375 131.201H88.0386ZM78.7035 118.39C78.5069 118.39 78.3242 118.4 78.1583 118.424C76.0802 118.716 74.9416 119.639 74.8262 120.171C74.7044 120.733 75.2415 125.887 77.2872 127.655C79.0382 129.167 81.9625 129.722 83.7101 130.054C84.0302 130.115 84.3063 130.167 84.5453 130.219C86.2934 130.597 88.6755 130.784 89.4753 130.427C89.9712 130.207 90.6098 129.488 91.1735 128.855C91.6265 128.345 92.0545 127.864 92.4489 127.568C93.1942 127.009 94.8791 126.098 95.4829 125.777C93.9825 121.205 92.5644 118.092 91.2634 116.513C89.9219 117.427 86.5213 119.718 85.9988 119.827C85.7639 119.876 85.3161 119.765 83.9902 119.41C82.4358 118.993 80.1796 118.389 78.7029 118.389L78.7035 118.39Z" fill="black"/>
<path d="M144.047 82.523L148.619 88.6837C148.619 88.6837 151.143 87.3596 151.364 87.1873C151.584 87.0151 153.564 87.7001 155.061 87.7308C156.557 87.7615 158.428 87.4692 158.967 87.3294C159.506 87.1891 159.637 85.9716 158.997 85.793C158.39 85.6236 156.165 84.999 156.165 84.999C156.165 84.999 157.396 84.0548 158.234 83.741C159.072 83.4272 161.882 82.411 162.134 82.1158C162.509 81.6744 162.061 79.1915 160.692 77.1934C159.702 75.7492 157.689 74.3983 157.059 74.262C156.428 74.1257 152.134 75.3234 151.046 76.1151C149.958 76.9068 148.402 79.5226 147.461 80.3091C146.521 81.0962 144.047 82.523 144.047 82.523H144.047Z" fill="#FFA66A"/>
<path d="M148.62 88.9743C148.53 88.9743 148.443 88.9331 148.386 88.8572L143.815 82.6964C143.766 82.6297 143.747 82.5456 143.764 82.4644C143.781 82.3832 143.831 82.3136 143.903 82.2718C143.927 82.2579 146.366 80.8485 147.276 80.087C147.68 79.7488 148.224 79.0256 148.801 78.26C149.513 77.314 150.249 76.3361 150.875 75.8808C151.997 75.0648 156.36 73.8143 157.12 73.979C157.899 74.1478 159.959 75.6123 160.931 77.0298C161.786 78.2768 162.186 79.5302 162.349 80.167C162.475 80.6629 162.73 81.8641 162.356 82.3043C162.155 82.541 161.192 82.9551 158.679 83.8866C158.545 83.9359 158.429 83.9794 158.337 84.0136C157.864 84.1905 157.245 84.5901 156.823 84.883C157.525 85.0802 158.667 85.4004 159.076 85.5146C159.476 85.626 159.721 86.0111 159.717 86.5192C159.713 86.9611 159.5 87.4918 159.041 87.6113C158.429 87.7708 156.52 88.0515 155.056 88.022C154.225 88.0051 153.28 87.7998 152.521 87.6345C152.13 87.5498 151.648 87.4449 151.496 87.4501C151.108 87.7041 149.159 88.7296 148.755 88.9418C148.712 88.9645 148.666 88.9749 148.62 88.9749L148.62 88.9743ZM144.473 82.6106L148.704 88.312C149.847 87.7105 151.052 87.0603 151.186 86.9588C151.386 86.8028 151.695 86.8608 152.644 87.0667C153.379 87.2262 154.293 87.4251 155.067 87.4408C156.579 87.4715 158.418 87.1728 158.895 87.0487C159.007 87.0191 159.135 86.7924 159.137 86.5134C159.137 86.4502 159.13 86.1312 158.92 86.0726C158.313 85.9032 156.088 85.2786 156.088 85.2786C155.982 85.249 155.902 85.162 155.881 85.0541C155.86 84.9462 155.902 84.836 155.99 84.7693C156.041 84.7299 157.265 83.7949 158.134 83.4701C158.227 83.4353 158.343 83.3924 158.477 83.3425C159.26 83.0525 161.634 82.1727 161.917 81.9256C161.983 81.8264 162.04 81.2858 161.781 80.2848C161.627 79.6903 161.25 78.5204 160.454 77.3587C159.494 75.9585 157.534 74.6622 156.998 74.5468C156.822 74.5091 155.845 74.6646 154.307 75.1199C152.854 75.5502 151.67 76.0218 151.217 76.3506C150.661 76.7549 149.951 77.698 149.265 78.6097C148.668 79.4026 148.104 80.1519 147.649 80.5324C146.88 81.1756 145.155 82.2104 144.474 82.6111L144.473 82.6106Z" fill="black"/>
<path d="M152.314 79.0244C152.228 79.0244 152.143 78.9867 152.086 78.9142C151.987 78.7884 152.008 78.6063 152.133 78.5071C152.296 78.3783 153.739 77.2427 154.166 77.0588C154.888 76.7479 158.621 75.0862 158.658 75.07C158.805 75.005 158.976 75.0706 159.041 75.2167C159.106 75.3629 159.041 75.5346 158.894 75.5995C158.857 75.6164 155.121 77.2792 154.396 77.5913C154.127 77.7067 153.086 78.4937 152.494 78.9618C152.44 79.0041 152.377 79.0244 152.314 79.0244Z" fill="black"/>
<path d="M153.384 80.9286C153.288 80.9286 153.193 80.8804 153.138 80.7928C153.053 80.6571 153.094 80.4785 153.229 80.3932C153.416 80.2761 155.065 79.2413 155.477 79.0633C156.203 78.7507 160.2 77.0965 160.24 77.0797C160.388 77.0182 160.558 77.089 160.619 77.2369C160.681 77.3848 160.61 77.5547 160.462 77.6156C160.422 77.6324 156.428 79.2848 155.707 79.5957C155.392 79.7309 154.034 80.5713 153.538 80.8839C153.49 80.9141 153.436 80.9286 153.384 80.9286H153.384Z" fill="black"/>
<path d="M154.907 83.1105C154.822 83.1105 154.737 83.0728 154.68 83.0003C154.58 82.8744 154.602 82.6923 154.727 82.5931C154.89 82.4644 156.333 81.3287 156.76 81.1449C157.489 80.8305 161.362 79.3538 161.526 79.2912C161.676 79.2337 161.843 79.3091 161.9 79.4588C161.957 79.6084 161.882 79.7761 161.732 79.8329C161.692 79.848 157.707 81.3681 156.989 81.6773C156.721 81.7933 155.679 82.5798 155.087 83.0478C155.033 83.0902 154.97 83.1105 154.907 83.1105H154.907Z" fill="black"/>
<path d="M139.361 142.688C139.361 142.688 137.907 145.902 137.717 146.323C137.527 146.744 136 148.161 135.49 148.843C134.979 149.523 133.824 152.275 133.805 152.666C133.786 153.058 134.658 153.148 135.065 152.939C135.473 152.73 137.643 150.627 137.643 150.627C137.643 150.627 138.137 153.835 138.048 154.244C137.96 154.654 136.22 157.509 136.152 157.824C136.083 158.139 137.231 159.146 138.334 159.385C141.201 160.006 143.206 159.504 143.774 159.165C144.342 158.827 145.49 155.937 145.736 154.802C145.981 153.668 145.386 150.819 145.495 150.315C145.604 149.811 147.199 146.099 147.199 146.099C144.897 144.287 142.187 143.52 139.361 142.688Z" fill="#FFA66A"/>
<path d="M140.986 159.972C140.192 159.972 139.278 159.886 138.274 159.669C137.211 159.439 135.737 158.377 135.869 157.763C135.907 157.59 136.154 157.142 136.752 156.084C137.137 155.402 137.72 154.37 137.766 154.181C137.805 153.965 137.642 152.595 137.441 151.225C136.758 151.877 135.534 153.025 135.198 153.197C134.8 153.4 134.145 153.382 133.797 153.158C133.606 153.035 133.506 152.855 133.516 152.652C133.533 152.302 134.087 151.004 134.198 150.747C134.357 150.38 134.902 149.144 135.259 148.668C135.498 148.348 135.941 147.884 136.37 147.436C136.815 146.97 137.369 146.39 137.454 146.203C137.644 145.782 139.098 142.567 139.098 142.567C139.158 142.436 139.306 142.368 139.444 142.409L139.681 142.479C142.467 143.299 145.098 144.074 147.379 145.871C147.483 145.952 147.518 146.092 147.466 146.213C146.83 147.695 145.855 150.026 145.779 150.375C145.746 150.53 145.823 151.178 145.892 151.751C146.019 152.813 146.178 154.136 146.021 154.863C145.789 155.932 144.634 158.991 143.924 159.415C143.454 159.695 142.415 159.972 140.986 159.972ZM136.448 157.858C136.559 158.102 137.444 158.895 138.398 159.102C141.124 159.693 143.098 159.232 143.627 158.917C143.992 158.699 145.146 156.166 145.454 154.741C145.591 154.108 145.433 152.785 145.318 151.82C145.214 150.955 145.162 150.492 145.214 150.254C145.314 149.79 146.487 147.031 146.846 146.191C144.693 144.561 142.18 143.82 139.523 143.037C139.187 143.78 138.142 146.09 137.983 146.442C137.865 146.706 137.453 147.144 136.79 147.837C136.373 148.274 135.942 148.725 135.724 149.016C135.22 149.689 134.159 152.277 134.099 152.664C134.199 152.755 134.669 152.818 134.935 152.682C135.19 152.552 136.555 151.281 137.443 150.42C137.521 150.345 137.635 150.319 137.738 150.353C137.84 150.388 137.915 150.477 137.932 150.584C138.05 151.349 138.426 153.878 138.333 154.307C138.282 154.542 137.95 155.145 137.257 156.371C136.932 156.947 136.532 157.654 136.448 157.859L136.448 157.858Z" fill="black"/>
<path d="M137.782 159.194C137.732 159.194 137.682 159.181 137.636 159.154C137.498 159.073 137.451 158.895 137.532 158.757C137.55 158.726 139.358 155.633 139.617 155.023C139.814 154.56 139.751 153.488 139.711 153.115C139.693 152.955 139.808 152.813 139.967 152.795C140.126 152.778 140.27 152.893 140.287 153.052C140.304 153.205 140.441 154.566 140.151 155.25C139.878 155.894 138.109 158.922 138.033 159.05C137.979 159.143 137.882 159.194 137.783 159.194L137.782 159.194Z" fill="black"/>
<path d="M139.93 159.658C139.887 159.658 139.844 159.648 139.803 159.629C139.659 159.558 139.6 159.385 139.671 159.241C139.686 159.209 141.238 156.051 141.501 155.431C141.698 154.968 141.635 153.897 141.594 153.523C141.577 153.364 141.692 153.221 141.851 153.204C142.01 153.186 142.154 153.301 142.171 153.46C142.188 153.614 142.325 154.974 142.035 155.659C141.766 156.293 140.256 159.367 140.191 159.498C140.141 159.6 140.038 159.66 139.931 159.66L139.93 159.658Z" fill="black"/>
<path d="M141.79 159.762C141.743 159.762 141.696 159.751 141.653 159.727C141.512 159.651 141.459 159.475 141.535 159.334C141.552 159.302 143.265 156.111 143.526 155.496C143.692 155.104 143.513 154.159 143.361 153.655C143.315 153.502 143.402 153.34 143.555 153.294C143.708 153.248 143.87 153.335 143.916 153.488C143.962 153.641 144.361 155.012 144.059 155.722C143.788 156.362 142.116 159.476 142.045 159.608C141.993 159.706 141.892 159.762 141.789 159.762H141.79Z" fill="black"/>
<path d="M94.4569 50.848C96.5387 50.848 98.2263 49.1604 98.2263 47.0786C98.2263 44.9968 96.5387 43.3091 94.4569 43.3091C92.3751 43.3091 90.6875 44.9968 90.6875 47.0786C90.6875 49.1604 92.3751 50.848 94.4569 50.848Z" fill="white"/>
<path d="M94.4507 51.1392C93.648 51.1392 92.8633 50.9002 92.1841 50.4403C91.2862 49.8324 90.6784 48.9114 90.4731 47.8465C90.2678 46.7816 90.4893 45.7011 91.0972 44.8027C91.705 43.9048 92.626 43.297 93.6909 43.0917C94.7558 42.8863 95.8363 43.1079 96.7348 43.7157C97.6332 44.3236 98.2404 45.2446 98.4458 46.3095C98.6511 47.3744 98.4295 48.4549 97.8217 49.3533C97.2138 50.2512 96.2928 50.859 95.2279 51.0643C94.9692 51.1142 94.7088 51.1392 94.4507 51.1392ZM94.4664 43.598C94.2454 43.598 94.0227 43.6189 93.8005 43.6618C92.8882 43.8375 92.0982 44.3584 91.5774 45.128C91.0566 45.8977 90.8663 46.8245 91.0426 47.7369C91.2184 48.6492 91.7392 49.4392 92.5089 49.96C93.2785 50.4809 94.2054 50.6711 95.1177 50.4948C96.0301 50.319 96.82 49.7982 97.3409 49.0285C97.8617 48.2589 98.0519 47.332 97.8756 46.4197C97.6999 45.5074 97.179 44.7174 96.4094 44.1966C95.8271 43.8022 95.1543 43.5974 94.4664 43.5974V43.598Z" fill="black"/>
<path d="M107.432 59.0034C106.915 59.1031 106.364 58.9175 106.016 58.4761C105.988 58.4402 103.151 54.8488 100.307 52.3583C97.6348 50.0186 94.2528 49.119 94.2191 49.1103C93.4448 48.909 92.9791 48.1185 93.1792 47.3442C93.3793 46.5699 94.1669 46.1036 94.9418 46.3019C95.1065 46.3443 99.0099 47.368 102.217 50.1769C105.268 52.8478 108.173 56.5285 108.296 56.6839C108.791 57.3132 108.682 58.225 108.053 58.7203C107.865 58.8682 107.651 58.9622 107.432 59.0045L107.432 59.0034Z" fill="#FFA66A"/>
<path d="M107.155 59.3201C106.627 59.3201 106.124 59.0805 105.79 58.6554C105.762 58.6194 102.948 55.0553 100.117 52.5764C97.5072 50.2912 94.1798 49.3997 94.1467 49.391C93.2193 49.1498 92.6596 48.1986 92.8991 47.2717C93.1387 46.3443 94.0876 45.7834 95.015 46.0212C95.182 46.0642 99.1504 47.1047 102.409 49.9589C105.479 52.6466 108.402 56.3481 108.525 56.5047C108.812 56.8701 108.94 57.3254 108.885 57.7871C108.83 58.2488 108.599 58.6612 108.233 58.9483C108.016 59.1194 107.758 59.2371 107.488 59.2893C107.377 59.3108 107.265 59.3212 107.155 59.3212V59.3201ZM94.584 46.5461C94.0684 46.5461 93.5957 46.8941 93.4612 47.4161C93.3017 48.0344 93.6746 48.6684 94.2935 48.829C94.3277 48.8377 97.7735 49.753 100.499 52.1397C103.37 54.654 106.218 58.2604 106.246 58.2969C106.516 58.6397 106.95 58.8015 107.379 58.7186C107.561 58.6832 107.728 58.6072 107.875 58.4912C108.119 58.2998 108.273 58.0249 108.31 57.7169C108.346 57.409 108.261 57.1056 108.07 56.862C107.948 56.7077 105.057 53.0468 102.028 50.3939C98.8714 47.6302 95.033 46.6233 94.8711 46.5815C94.7754 46.5572 94.6792 46.545 94.584 46.545V46.5461Z" fill="black"/>
<path d="M105.167 55.1841C106.721 53.8382 109.075 54.0067 110.421 55.5602L111.296 56.57C111.751 57.0953 111.694 57.8916 111.169 58.3467L107.442 61.5755C106.917 62.0306 106.121 61.9736 105.665 61.4483L104.791 60.4385C103.445 58.885 103.613 56.5305 105.167 55.1845L105.167 55.1841Z" fill="white"/>
<path d="M106.582 62.1656C106.148 62.1656 105.716 61.9846 105.41 61.632L104.536 60.6222C103.834 59.8119 103.489 58.7772 103.565 57.7077C103.642 56.6382 104.13 55.6626 104.94 54.9608C106.612 53.5114 109.152 53.6929 110.601 55.3657L111.476 56.3754C112.035 57.021 111.965 58.0012 111.32 58.5603L107.595 61.7886C107.303 62.042 106.941 62.1661 106.582 62.1661V62.1656ZM107.566 54.5618C106.769 54.5618 105.968 54.8373 105.32 55.3993C103.889 56.6393 103.733 58.812 104.973 60.2429L105.848 61.2526C106.198 61.6563 106.811 61.7004 107.215 61.3501L110.94 58.1218C111.344 57.7721 111.388 57.159 111.037 56.7553L110.163 55.7456C109.485 54.9631 108.528 54.5623 107.565 54.5623L107.566 54.5618Z" fill="black"/>
<path d="M109.573 60.2346C111.077 58.9312 111.958 57.4838 111.54 57.0016C111.122 56.5195 109.564 57.1852 108.06 58.4886C106.555 59.7919 105.675 61.2394 106.092 61.7215C106.51 62.2037 108.068 61.538 109.573 60.2346Z" fill="#393F4F"/>
<path d="M106.488 62.1621C106.154 62.1621 105.955 62.0409 105.838 61.9057C105.632 61.6679 105.505 61.1888 106.073 60.2568C106.459 59.6211 107.085 58.9135 107.834 58.2645C108.583 57.6155 109.373 57.0964 110.057 56.804C111.059 56.3754 111.516 56.5691 111.722 56.8069C112.343 57.5238 111.188 59.1815 109.726 60.4482C108.977 61.0978 108.187 61.6163 107.503 61.9086C107.072 62.0931 106.741 62.1621 106.488 62.1621ZM111.074 57.13C110.907 57.13 110.646 57.1828 110.285 57.3371C109.654 57.6062 108.919 58.0911 108.213 58.7024C107.508 59.3137 106.923 59.9726 106.567 60.5578C106.226 61.1198 106.206 61.4446 106.276 61.5252C106.346 61.6064 106.671 61.6331 107.275 61.3744C107.906 61.1053 108.641 60.6204 109.347 60.0091C110.967 58.6055 111.476 57.4078 111.284 57.1857C111.255 57.1532 111.186 57.1294 111.074 57.1294V57.13Z" fill="black"/>
<path d="M119.871 143.798C118.055 143.404 116.294 142.665 114.676 141.585C112.557 140.171 110.814 138.248 109.636 136.024C108.391 133.674 107.801 131.016 107.932 128.337C108.272 121.34 111.912 112.626 115.433 104.199C117.107 100.192 118.689 96.407 119.8 93.058C122.979 83.4782 118.463 76.2415 118.418 76.1696C117.987 75.4945 118.184 74.5984 118.859 74.1669C119.534 73.7359 120.43 73.9331 120.862 74.6082C120.917 74.6958 122.241 76.7914 123.102 80.2186C123.604 82.2178 123.851 84.2734 123.834 86.3289C123.815 88.896 123.383 91.4671 122.552 93.971C121.407 97.4237 119.805 101.258 118.109 105.317C114.685 113.513 111.144 121.988 110.829 128.477C110.621 132.756 112.661 136.754 116.286 139.172C117.98 140.303 119.922 140.999 121.9 141.184C124.025 141.384 126.107 141.008 128.087 140.07C130.277 139.032 131.714 137.315 132.479 134.82C133.01 133.085 133.193 131.053 133.037 128.606C132.986 127.807 133.592 127.118 134.391 127.067C135.19 127.016 135.879 127.622 135.93 128.421C136.109 131.223 135.887 133.594 135.251 135.67C134.248 138.942 132.255 141.304 129.329 142.691C126.315 144.119 123.011 144.477 119.871 143.798H119.871Z" fill="#FFA66A"/>
<path d="M122.992 144.423C121.932 144.423 120.868 144.31 119.81 144.081C117.929 143.674 116.148 142.915 114.516 141.827C112.357 140.386 110.581 138.427 109.381 136.161C108.111 133.764 107.51 131.054 107.643 128.324C107.985 121.276 111.636 112.539 115.166 104.089C116.838 100.085 118.418 96.3055 119.525 92.9676C122.649 83.553 118.218 76.3976 118.174 76.3262C117.657 75.5177 117.895 74.4401 118.703 73.9233C119.095 73.6733 119.56 73.5904 120.014 73.6907C120.469 73.7905 120.856 74.0613 121.106 74.4534C121.163 74.5427 122.511 76.6771 123.383 80.1496C123.891 82.1726 124.141 84.2531 124.125 86.3324C124.105 88.9302 123.668 91.5315 122.828 94.0638C121.679 97.5264 120.075 101.365 118.378 105.429C114.963 113.603 111.432 122.055 111.119 128.493C110.916 132.669 112.908 136.571 116.447 138.933C118.102 140.037 119.997 140.716 121.927 140.897C124 141.091 126.03 140.725 127.963 139.81C130.075 138.808 131.461 137.149 132.201 134.736C132.723 133.036 132.901 131.037 132.747 128.627C132.718 128.163 132.87 127.715 133.177 127.366C133.484 127.017 133.908 126.809 134.372 126.779C134.836 126.75 135.284 126.902 135.633 127.209C135.982 127.516 136.19 127.94 136.22 128.404C136.401 131.242 136.175 133.647 135.528 135.757C134.5 139.109 132.457 141.532 129.453 142.954C127.394 143.93 125.203 144.425 122.992 144.425L122.992 144.423ZM119.638 74.229C119.419 74.229 119.205 74.291 119.016 74.4116C118.477 74.7562 118.319 75.4748 118.663 76.0136C118.709 76.0867 123.298 83.4388 120.075 93.1491C118.961 96.5079 117.378 100.298 115.702 104.309C112.19 112.715 108.559 121.405 108.222 128.351C108.094 130.977 108.672 133.584 109.893 135.889C111.048 138.07 112.758 139.956 114.837 141.344C116.409 142.392 118.123 143.123 119.933 143.514C120.948 143.734 121.972 143.843 122.991 143.843C125.117 143.843 127.224 143.367 129.206 142.428C132.055 141.078 133.996 138.775 134.974 135.584C135.6 133.543 135.819 131.205 135.641 128.439C135.622 128.13 135.483 127.847 135.25 127.642C135.017 127.438 134.719 127.336 134.41 127.356C134.1 127.376 133.817 127.515 133.613 127.747C133.408 127.98 133.306 128.279 133.326 128.588C133.485 131.07 133.298 133.136 132.756 134.904C131.966 137.482 130.479 139.257 128.212 140.332C126.183 141.293 124.05 141.678 121.873 141.473C119.847 141.283 117.859 140.571 116.124 139.414C112.414 136.939 110.326 132.845 110.539 128.464C110.857 121.924 114.408 113.425 117.841 105.206C119.535 101.151 121.135 97.3222 122.277 93.8799C123.098 91.4051 123.525 88.8635 123.544 86.3266C123.56 84.296 123.316 82.2649 122.821 80.2894C121.971 76.9074 120.672 74.8501 120.617 74.7643C120.45 74.5033 120.192 74.3229 119.889 74.2562C119.806 74.2376 119.721 74.2284 119.637 74.2284L119.638 74.229Z" fill="black"/>
<path d="M99.4695 65.9181C99.3221 65.9181 99.1963 65.8068 99.1812 65.6571C99.165 65.4976 99.2815 65.3555 99.441 65.3399L101.428 65.1404C101.587 65.1241 101.729 65.2407 101.745 65.4002C101.76 65.5597 101.644 65.7018 101.485 65.7175L99.4985 65.917C99.4886 65.9181 99.4787 65.9187 99.4689 65.9187L99.4695 65.9181Z" fill="black"/>
<path d="M101.813 72.4692C101.724 72.4692 101.634 72.4275 101.578 72.3486C101.485 72.2187 101.514 72.0371 101.644 71.9437L103.265 70.7779C103.394 70.6846 103.576 70.7141 103.669 70.8441C103.763 70.974 103.733 71.1555 103.603 71.2489L101.983 72.4147C101.932 72.4518 101.873 72.4692 101.813 72.4692Z" fill="black"/>
<path d="M107.118 76.9706C107.078 76.9706 107.038 76.9625 106.999 76.9451C106.853 76.8796 106.788 76.7073 106.854 76.5617L107.675 74.7417C107.74 74.5955 107.912 74.5306 108.058 74.5967C108.204 74.6622 108.269 74.8345 108.203 74.9801L107.382 76.8001C107.334 76.9074 107.229 76.9712 107.118 76.9712V76.9706Z" fill="black"/>
<path d="M126.039 66.9598C126.025 66.9598 126.01 66.9587 125.996 66.957L124.021 66.6646C123.863 66.6414 123.753 66.4935 123.777 66.3352C123.8 66.1768 123.948 66.0672 124.106 66.091L126.081 66.3833C126.239 66.4065 126.349 66.5544 126.325 66.7128C126.304 66.8566 126.18 66.9604 126.039 66.9604V66.9598Z" fill="black"/>
<path d="M123.509 60.7684C123.394 60.7684 123.285 60.6988 123.239 60.5851C123.18 60.436 123.253 60.2678 123.402 60.2087L125.259 59.4744C125.408 59.4152 125.576 59.4883 125.635 59.6374C125.694 59.7864 125.621 59.9546 125.472 60.0138L123.616 60.7481C123.581 60.762 123.544 60.7684 123.509 60.7684Z" fill="black"/>
<path d="M120.086 55.9364C120.023 55.9364 119.96 55.9161 119.907 55.8737C119.781 55.774 119.76 55.5918 119.86 55.4666L121.1 53.9023C121.2 53.777 121.382 53.7556 121.507 53.8553C121.633 53.9551 121.654 54.1372 121.554 54.2625L120.314 55.8267C120.256 55.8987 120.172 55.9364 120.086 55.9364Z" fill="black"/>
</svg>
