<svg width="331" height="48" viewBox="0 0 331 48" fill="none" xmlns="http://www.w3.org/2000/svg">
<path d="M56.8102 0.647823C53.4469 1.39512 50.3556 3.35022 47.9998 5.17402C44.5202 7.86428 41.0093 12.548 39.8522 16.6501C39.0399 19.5282 38.504 23.8786 39.1874 27.4798C39.2801 27.9607 41.4132 34.1073 43.443 36.9501C43.8265 37.4872 44.5876 37.5705 45.0271 37.0781C45.3734 36.6901 45.2918 36.1144 44.9893 35.6912C42.3277 31.9674 40.3109 25.7061 41.5162 18.9162C43.5957 11.8088 48.9929 5.20027 56.6419 2.91193C63.2215 0.944546 70.7132 2.5485 75.4352 5.51229C76.1147 5.93884 77.0808 6.00348 77.6405 5.42856C78.0632 4.99432 77.7731 4.3102 77.256 3.9943C73.4669 1.67979 68.3466 -0.00050354 62.7537 -0.00050354C60.8176 -0.00050354 58.8232 0.201466 56.8102 0.647823Z" fill="url(#paint0_linear_525_2630)"/>
<path d="M82.6258 9.21093C82.5912 9.21093 82.5591 9.22697 82.5306 9.24659C82.3965 9.33883 82.2652 9.43388 82.1386 9.53374C81.3221 10.1777 81.5105 11.3276 82.0818 12.1964C84.8318 16.3787 86.3068 22.6831 84.9047 28.9355C82.3827 36.5054 77.2702 41.5547 69.7748 44.2934C67.084 44.9788 63.7267 45.0127 60.2651 44.9501C59.8448 44.9425 59.4255 44.8911 59.0182 44.7869C55.7224 43.9435 53.1756 42.7268 50.6408 41.3457C50.15 41.0783 49.519 41.0878 49.1095 41.4683C48.7301 41.8208 48.9151 42.4016 49.3304 42.711C53.2561 45.6357 59.1457 47.9972 65.7841 47.1998C76.5119 45.9112 85.3888 38.3029 87.2294 28.2892C88.5009 21.3864 86.6545 14.1037 82.8875 9.55411C82.7923 9.43908 82.7751 9.21093 82.6258 9.21093Z" fill="url(#paint1_linear_525_2630)"/>
<path fill-rule="evenodd" clip-rule="evenodd" d="M308.42 0.354778C316.084 15.9632 323.554 31.7614 330.867 47.7151C330.31 47.8 329.458 47.9535 328.866 47.7151C326.13 43.7464 324.678 38.5355 322.054 34.4597H301.936C301.697 33.8922 302.379 33.0015 302.763 32.5188C308.015 32.543 315.282 32.4804 320.556 32.5188C321.152 30.6041 319.63 28.9257 318.892 27.3463C316.607 22.4646 314.014 17.3386 311.914 12.154C310.62 8.54676 306.295 4.73555 308.42 0.354778Z" fill="#010101"/>
<path fill-rule="evenodd" clip-rule="evenodd" d="M96.7793 0.678181H98.4413C98.4392 16.2502 98.4434 32.6786 98.4413 47.7154C95.6077 49.0141 96.2808 45.6169 96.2808 42.5429C96.2808 29.1703 96.1478 12.9863 96.4469 1.16291C96.4386 0.888229 96.5695 0.742809 96.7793 0.678181Z" fill="#010101"/>
<path fill-rule="evenodd" clip-rule="evenodd" d="M104.758 25.246V23.3091C112.582 23.3555 121.085 24.1513 124.708 19.4272C125.688 18.1487 126.045 16.6622 126.87 14.901C127.09 11.724 126.586 9.53462 125.372 7.62801C124.344 6.01224 122.348 4.21065 120.719 3.58454C116.383 1.92231 110.54 3.17857 104.758 2.77867C104.741 2.39492 104.523 0.973043 105.09 0.678164C110.465 1.45778 116.236 0.0156975 120.384 1.1629C124.82 2.38684 128.526 6.82012 129.197 11.6674C129.301 12.4269 129.282 13.3862 129.197 14.0951C128.609 18.9445 125.194 22.9698 120.719 24.7613C116.223 25.6197 109.449 25.1167 104.758 25.246Z" fill="#010101"/>
<path fill-rule="evenodd" clip-rule="evenodd" d="M141.166 0.678551H142.662C142.83 15.6285 143.156 33.3253 142.495 47.7158C141.885 48.0167 141.575 47.6047 141 47.8733C140.393 40.4993 140.667 32.584 140.667 24.6001C140.667 16.7454 140.528 8.26057 140.831 1.16328C140.825 0.888603 140.956 0.743183 141.166 0.678551Z" fill="#010101"/>
<path fill-rule="evenodd" clip-rule="evenodd" d="M149.319 0.67889C157.529 1.17372 167.087 -0.46629 170.933 4.39719C173.845 7.02484 175.318 13.2678 173.428 18.1393C171.431 20.9104 169.32 23.946 165.28 24.9256C160.508 26.0809 154.398 24.7317 149.153 25.2467C149.036 24.865 148.769 23.7986 149.153 23.4674C153.993 22.8534 161.237 24.0309 165.614 22.4999C169.553 20.5812 173.27 16.7882 171.926 10.5391C171.444 8.28514 169.796 5.97863 167.941 4.72236C163.406 1.64431 156.141 3.13487 149.153 2.7794C148.845 2.28255 148.916 1.00002 149.319 0.67889Z" fill="#010101"/>
<path fill-rule="evenodd" clip-rule="evenodd" d="M275.665 0.678711C276.504 0.666592 276.618 0.886742 277.329 0.678711C277.713 15.766 277.381 31.5501 277.495 46.906C275.681 45.4357 274.314 43.5351 272.837 41.7315C268.522 36.4701 263.613 31.3118 259.207 25.8949C253.38 18.7309 247.011 11.9568 241.086 4.88174C241.323 3.82543 240.905 2.54695 241.086 1.64817C242.008 2.06424 242.613 3.00946 243.246 3.7507C252.946 15.0833 262.868 26.9815 272.837 38.3404C273.494 39.0816 274.158 40.2329 275.332 40.2773C275.129 29.1789 275.008 13.7645 275.332 1.16344C275.328 0.888763 275.453 0.743343 275.665 0.678711Z" fill="#010101"/>
<path fill-rule="evenodd" clip-rule="evenodd" d="M222.629 5.04303C222.498 5.99431 221.663 6.26495 221.131 6.82038C216.546 3.36464 208.326 1.28635 201.182 3.42523C193.528 5.71559 188.133 12.3261 186.056 19.4275C184.772 26.654 187.138 33.2726 190.043 36.8859C189.748 37.508 189.249 37.9462 188.713 38.3401C186.496 36.1972 183.827 28.5303 183.725 27.9951C183.044 24.3939 183.58 20.0435 184.392 17.1674C185.547 13.0653 189.058 8.37758 192.54 5.6853C194.891 3.86755 197.968 1.80542 201.348 1.16315C209.109 -0.311245 217.529 1.62566 222.629 5.04303Z" fill="#010101"/>
<path fill-rule="evenodd" clip-rule="evenodd" d="M193.207 42.7015C193.369 42.0512 193.934 41.7947 194.372 41.4109C197.345 43.061 200.222 44.5173 204.182 45.4483C207.863 45.5291 211.47 45.5291 214.322 44.802C221.815 42.0694 226.928 37.0201 229.452 29.4461C231.014 22.472 229.001 15.4333 225.625 11.3474C225.943 10.6264 226.502 10.1518 227.123 9.72964C227.262 9.70136 227.277 9.79427 227.289 9.89324C231.153 14.4295 233.064 21.8116 231.776 28.8018C229.94 38.8136 221.057 46.4279 210.333 47.7145C203.301 48.5567 197.115 45.8583 193.207 42.7015Z" fill="#010101"/>
<path fill-rule="evenodd" clip-rule="evenodd" d="M303.761 10.5386C304.711 10.8011 304.605 12.0958 305.259 12.6391C299.636 24.2484 294.116 35.9628 288.636 47.7155C287.69 47.5559 286.87 48.178 286.141 47.7155C292.003 35.3064 297.853 22.8952 303.761 10.5386Z" fill="#010101"/>
<path fill-rule="evenodd" clip-rule="evenodd" d="M242.914 47.7159C240.187 49.5014 241.088 42.3596 241.088 39.9562V14.5825V14.2573C243.932 15.1601 243.247 19.8802 243.247 24.6003C243.251 31.9561 243.515 41.1943 242.914 47.7159Z" fill="#010101"/>
<path fill-rule="evenodd" clip-rule="evenodd" d="M172.43 27.9963H172.762C176.543 32.1993 175.324 40.8598 171.599 44.3176C166.858 48.7226 158.422 47.8985 149.153 47.8743C148.887 47.3734 148.887 45.9536 149.153 45.4507C154.718 44.8993 160.356 46.206 164.945 45.4507C169.127 44.768 173.448 40.0459 173.095 34.7845C172.937 32.5325 171.886 31.0703 170.932 29.2889C171.067 28.5032 172.064 28.5598 172.43 27.9963Z" fill="#010101"/>
<path fill-rule="evenodd" clip-rule="evenodd" d="M130.362 47.5501C129.745 47.9238 128.374 47.5562 127.703 47.8733C124.383 42.2666 120.76 36.9547 117.395 31.3884C118.192 31.356 118.803 31.1379 119.555 31.0672C123.471 36.2539 126.573 42.2383 130.362 47.5501Z" fill="#010101"/>
<path fill-rule="evenodd" clip-rule="evenodd" d="M12.6578 0.514469L13.1563 2.62103C13.1563 2.62103 8.65664 3.74804 7.00509 5.20627C4.58489 7.33707 3.04968 11.3402 4.84457 15.0665C5.96846 17.3993 8.79791 19.6594 11.8268 20.5581C13.121 20.9439 14.1307 21.4973 15.3169 21.8528C17.3029 22.4486 19.1913 23.4625 20.9695 23.9513C25.5129 25.2055 29.6116 27.6938 31.6101 31.5515C34.2069 40.9977 27.9518 47.4729 19.64 47.8728C19.2993 47.2326 19.588 46.4954 19.64 45.7723C25.5793 45.1341 31.2756 41.0866 29.9482 33.8115C29.2605 30.0468 24.6715 27.3727 20.9695 26.2174C19.3263 25.7024 17.4982 24.8319 15.4831 24.1149C8.36373 21.5761 -0.575426 18.0618 2.35166 8.2722C3.58773 4.13986 6.45873 2.413 10.9958 0.999199C11.3656 0.888115 12.6578 0.514469 12.6578 0.514469Z" fill="#010101"/>
<path fill-rule="evenodd" clip-rule="evenodd" d="M30.7776 5.20729C30.2645 5.78291 29.822 6.43124 29.1136 6.82104C26.5334 4.80335 23.5378 3.18959 19.4722 2.62205C19.5782 1.96766 19.2562 0.897214 19.6384 0.515488C23.8805 0.921451 27.838 2.9957 30.7776 5.20729Z" fill="#010101"/>
<path fill-rule="evenodd" clip-rule="evenodd" d="M13.4904 45.9345C13.428 46.5747 13.642 47.4856 13.3242 47.8734C7.84184 47.3301 4.10664 45.0902 0.855469 42.3778C1.16293 41.6002 1.87133 41.2124 2.51741 40.762C5.33232 43.3068 8.87432 45.1407 13.4904 45.9345Z" fill="#010101"/>
<defs>
<linearGradient id="paint0_linear_525_2630" x1="38.875" y1="37.8228" x2="76.6736" y2="-1.36594" gradientUnits="userSpaceOnUse">
<stop stop-color="#FF4D00"/>
<stop offset="1" stop-color="#FF9E0D"/>
</linearGradient>
<linearGradient id="paint1_linear_525_2630" x1="48.6599" y1="47.3564" x2="86.7967" y2="8.39618" gradientUnits="userSpaceOnUse">
<stop stop-color="#FF4D00"/>
<stop offset="1" stop-color="#FF9E0D"/>
</linearGradient>
</defs>
</svg>
