<svg width="212" height="32" viewBox="0 0 212 32" fill="none" xmlns="http://www.w3.org/2000/svg">
<path d="M35.9087 0.58427C33.75 1.0776 31.766 2.36828 30.254 3.57228C28.0206 5.34828 25.7673 8.44028 25.0246 11.1483C24.5033 13.0483 24.1593 15.9203 24.598 18.2976C24.6573 18.6143 26.02 22.6533 27.3199 24.5359C27.5684 24.8958 28.0732 24.9534 28.3573 24.6209C28.5714 24.3703 28.5213 24.0046 28.3327 23.7342C26.619 21.2777 25.3174 17.1363 26.0927 12.6443C27.4273 7.95228 30.8913 3.58961 35.8006 2.07894C40.0142 0.783039 44.8105 1.83433 47.8423 3.78257C48.2879 4.0689 48.9301 4.11696 49.2896 3.72791C49.5512 3.44465 49.3681 3.00553 49.0417 2.80012C46.6088 1.26874 43.3181 0.156271 39.7233 0.156271C38.4807 0.156271 37.2007 0.289604 35.9087 0.58427Z" fill="url(#paint0_linear_529_1052)"/>
<path d="M52.4797 6.23626C52.4575 6.23626 52.437 6.24679 52.4188 6.25962C52.3288 6.32335 52.2406 6.38911 52.1559 6.45841C51.6352 6.88417 51.7588 7.62748 52.1219 8.19366C53.8925 10.9546 54.8437 15.1233 53.9424 19.2576C52.3237 24.2549 49.0424 27.5882 44.2317 29.3962C42.5679 29.8322 40.5072 29.8689 38.3721 29.834C37.9402 29.827 37.5093 29.7737 37.093 29.6587C35.0979 29.1072 33.5288 28.3337 31.9684 27.46C31.6445 27.2786 31.224 27.2821 30.9581 27.541C30.7217 27.7712 30.8389 28.1435 31.1006 28.3444C33.6202 30.2785 37.4044 31.842 41.6704 31.3149C48.5557 30.4643 54.253 25.4416 55.4344 18.8309C56.2504 14.2741 55.0655 9.4664 52.6478 6.46293C52.5865 6.38683 52.5774 6.23626 52.4797 6.23626Z" fill="url(#paint1_linear_529_1052)"/>
<path fill-rule="evenodd" clip-rule="evenodd" d="M197.399 0.390556C202.318 10.6946 207.112 21.1239 211.806 31.6559C211.448 31.7119 210.902 31.8132 210.522 31.6559C208.766 29.0359 207.834 25.5959 206.15 22.9052H193.238C193.084 22.5306 193.522 21.9426 193.768 21.6239C197.139 21.6399 201.803 21.5986 205.188 21.6239C205.571 20.3599 204.594 19.2519 204.12 18.2092C202.654 14.9866 200.99 11.6026 199.642 8.17989C198.811 5.79856 196.035 3.28255 197.399 0.390556Z" fill="#252C32"/>
<path fill-rule="evenodd" clip-rule="evenodd" d="M61.5679 0.604141H62.6346C62.6333 10.8841 62.6359 21.7295 62.6346 31.6561C60.8159 32.5135 61.2479 30.2708 61.2479 28.2415C61.2479 19.4135 61.1626 8.72947 61.3546 0.924141C61.3493 0.742807 61.4333 0.646807 61.5679 0.604141Z" fill="#252C32"/>
<path fill-rule="evenodd" clip-rule="evenodd" d="M66.6886 16.8229V15.5442C71.7099 15.5749 77.1673 16.1002 79.4926 12.9815C80.1219 12.1375 80.3513 11.1562 80.8806 9.99352C81.0219 7.89619 80.6979 6.45086 79.9193 5.19219C79.2593 4.12552 77.9779 2.93619 76.9326 2.52286C74.1499 1.42552 70.3993 2.25486 66.6886 1.99086C66.6779 1.73752 66.5379 0.798857 66.9019 0.604191C70.3513 1.11886 74.0553 0.166857 76.7179 0.924191C79.5646 1.73219 81.9433 4.65886 82.3739 7.85886C82.4406 8.36019 82.4286 8.99352 82.3739 9.46152C81.9966 12.6629 79.8046 15.3202 76.9326 16.5029C74.0473 17.0695 69.6993 16.7375 66.6886 16.8229Z" fill="#252C32"/>
<path fill-rule="evenodd" clip-rule="evenodd" d="M90.0569 0.604134H91.0169C91.1249 10.4735 91.3343 22.1561 90.9103 31.6561C90.5183 31.8548 90.3196 31.5828 89.9503 31.7601C89.5609 26.8921 89.7369 21.6668 89.7369 16.3961C89.7369 11.2108 89.6476 5.60946 89.8423 0.924133C89.8383 0.7428 89.9223 0.646799 90.0569 0.604134Z" fill="#252C32"/>
<path fill-rule="evenodd" clip-rule="evenodd" d="M95.2846 0.604141C100.554 0.930807 106.689 -0.151859 109.157 3.05881C111.026 4.79347 111.971 8.91481 110.758 12.1308C109.477 13.9601 108.122 15.9641 105.529 16.6108C102.466 17.3735 98.5446 16.4828 95.178 16.8228C95.1033 16.5708 94.9313 15.8668 95.178 15.6481C98.2846 15.2428 102.934 16.0201 105.743 15.0095C108.271 13.7428 110.657 11.2388 109.794 7.11347C109.485 5.62547 108.427 4.10281 107.237 3.27347C104.326 1.24147 99.6633 2.22547 95.178 1.99081C94.9806 1.66281 95.026 0.816141 95.2846 0.604141Z" fill="#252C32"/>
<path fill-rule="evenodd" clip-rule="evenodd" d="M176.379 0.604126C176.917 0.596125 176.991 0.741459 177.447 0.604126C177.693 10.5641 177.48 20.9841 177.553 31.1215C176.389 30.1508 175.512 28.8961 174.564 27.7055C171.795 24.2321 168.644 20.8268 165.816 17.2508C162.076 12.5215 157.988 8.04946 154.185 3.37879C154.337 2.68146 154.069 1.83746 154.185 1.24413C154.777 1.51879 155.165 2.14279 155.572 2.63213C161.797 10.1135 168.165 17.9681 174.564 25.4668C174.985 25.9561 175.412 26.7161 176.165 26.7455C176.035 19.4188 175.957 9.24279 176.165 0.924126C176.163 0.742792 176.243 0.646791 176.379 0.604126Z" fill="#252C32"/>
<path fill-rule="evenodd" clip-rule="evenodd" d="M142.342 3.48559C142.258 4.11359 141.722 4.29225 141.38 4.65892C138.438 2.37759 133.162 1.00559 128.576 2.41759C123.664 3.92959 120.202 8.29359 118.868 12.9816C118.044 17.7523 119.563 22.1216 121.427 24.5069C121.238 24.9176 120.918 25.2069 120.574 25.4669C119.151 24.0523 117.438 18.9909 117.372 18.6376C116.935 16.2603 117.279 13.3883 117.8 11.4896C118.542 8.78159 120.795 5.68692 123.03 3.90959C124.539 2.70959 126.514 1.34826 128.683 0.924253C133.664 -0.0490799 139.068 1.22959 142.342 3.48559Z" fill="#252C32"/>
<path fill-rule="evenodd" clip-rule="evenodd" d="M123.454 28.3463C123.558 27.917 123.921 27.7476 124.202 27.4943C126.11 28.5836 127.957 29.545 130.498 30.1596C132.861 30.213 135.175 30.213 137.006 29.733C141.815 27.929 145.097 24.5956 146.717 19.5956C147.719 14.9916 146.427 10.345 144.261 7.64763C144.465 7.17163 144.823 6.8583 145.222 6.57963C145.311 6.56096 145.321 6.6223 145.329 6.68763C147.809 9.6823 149.035 14.5556 148.209 19.1703C147.03 25.7796 141.329 30.8063 134.446 31.6556C129.933 32.2116 125.962 30.4303 123.454 28.3463Z" fill="#252C32"/>
<path fill-rule="evenodd" clip-rule="evenodd" d="M194.41 7.11321C195.019 7.28654 194.951 8.14121 195.371 8.49987C191.762 16.1639 188.219 23.8972 184.702 31.6559C184.095 31.5505 183.569 31.9612 183.101 31.6559C186.863 23.4639 190.618 15.2705 194.41 7.11321Z" fill="#252C32"/>
<path fill-rule="evenodd" clip-rule="evenodd" d="M155.357 31.6562C153.607 32.8349 154.185 28.1202 154.185 26.5335V9.78288V9.56821C156.011 10.1642 155.571 13.2802 155.571 16.3962C155.573 21.2522 155.743 27.3509 155.357 31.6562Z" fill="#252C32"/>
<path fill-rule="evenodd" clip-rule="evenodd" d="M110.118 18.638H110.331C112.758 21.4127 111.975 27.13 109.584 29.4127C106.542 32.3207 101.127 31.7767 95.1778 31.7607C95.0071 31.43 95.0071 30.4927 95.1778 30.1607C98.7498 29.7967 102.368 30.6593 105.314 30.1607C107.998 29.71 110.771 26.5927 110.544 23.1193C110.443 21.6327 109.768 20.6673 109.156 19.4913C109.243 18.9727 109.883 19.01 110.118 18.638Z" fill="#252C32"/>
<path fill-rule="evenodd" clip-rule="evenodd" d="M83.1215 31.5468C82.7255 31.7935 81.8455 31.5508 81.4148 31.7601C79.2842 28.0588 76.9588 24.5521 74.7988 20.8775C75.3108 20.8561 75.7028 20.7121 76.1855 20.6655C78.6988 24.0895 80.6895 28.0401 83.1215 31.5468Z" fill="#252C32"/>
<path fill-rule="evenodd" clip-rule="evenodd" d="M7.5755 0.49601L7.8955 1.88667C7.8955 1.88667 5.0075 2.63068 3.9475 3.59334C2.39416 5.00001 1.40883 7.64268 2.56083 10.1027C3.28216 11.6427 5.09816 13.1347 7.04216 13.728C7.87283 13.9827 8.52083 14.348 9.28216 14.5827C10.5568 14.976 11.7688 15.6453 12.9102 15.968C15.8262 16.796 18.4568 18.4387 19.7395 20.9853C21.4062 27.2213 17.3915 31.496 12.0568 31.76C11.8382 31.3373 12.0235 30.8507 12.0568 30.3733C15.8688 29.952 19.5248 27.28 18.6728 22.4773C18.2315 19.992 15.2862 18.2267 12.9102 17.464C11.8555 17.124 10.6822 16.5493 9.38883 16.076C4.8195 14.4 -0.917837 12.08 0.96083 5.61734C1.75416 2.88934 3.59683 1.74934 6.50883 0.81601C6.74616 0.742676 7.5755 0.49601 7.5755 0.49601Z" fill="#252C32"/>
<path fill-rule="evenodd" clip-rule="evenodd" d="M19.2069 3.59372C18.8775 3.97372 18.5935 4.40172 18.1389 4.65906C16.4829 3.32706 14.5602 2.26172 11.9509 1.88706C12.0189 1.45506 11.8122 0.748391 12.0575 0.496391C14.7802 0.764391 17.3202 2.13372 19.2069 3.59372Z" fill="#252C32"/>
<path fill-rule="evenodd" clip-rule="evenodd" d="M8.10933 30.4804C8.06933 30.903 8.20667 31.5044 8.00267 31.7604C4.484 31.4017 2.08667 29.923 0 28.1324C0.197333 27.619 0.652 27.363 1.06667 27.0657C2.87333 28.7457 5.14667 29.9564 8.10933 30.4804Z" fill="#252C32"/>
<defs>
<linearGradient id="paint0_linear_529_1052" x1="24.3975" y1="25.1256" x2="49.366" y2="-0.0421133" gradientUnits="userSpaceOnUse">
<stop stop-color="#FF4D00"/>
<stop offset="1" stop-color="#FF9E0D"/>
</linearGradient>
<linearGradient id="paint1_linear_529_1052" x1="30.6797" y1="31.4183" x2="55.8612" y2="6.40771" gradientUnits="userSpaceOnUse">
<stop stop-color="#FF4D00"/>
<stop offset="1" stop-color="#FF9E0D"/>
</linearGradient>
</defs>
</svg>
