<svg width="130" height="26" viewBox="0 0 130 26" fill="none" xmlns="http://www.w3.org/2000/svg">
<g clip-path="url(#clip0_525_2716)">
<path d="M43.8706 6.31396L46.4656 15.8473L48.69 6.31396H52.8915L48.8135 21.2949H44.7356L42.1405 12.0092L39.5455 21.2949H35.4675L31.6367 6.31396H35.8382L38.0626 15.8473L40.6576 6.31396H43.8706ZM91.8173 16.8378V21.2949H88.1101V6.31396H91.8173V13.8663H93.5474L95.8953 9.90444H99.8497L96.6367 15.3521L100.468 21.1711H96.266L93.4238 16.714H91.8173V16.8378ZM118.139 21.2949C117.15 21.4187 116.285 21.5425 115.42 21.5425C114.555 21.5425 113.814 21.2949 113.319 20.6759C112.701 20.0568 112.454 19.314 112.454 18.3235V6.31396H116.161V17.7044C116.161 17.9521 116.285 18.0759 116.409 18.1997C116.532 18.3235 116.779 18.4473 116.903 18.4473H117.768L118.139 21.2949ZM55.9808 12.6283C55.6101 12.8759 55.4865 13.1235 55.4865 13.6187V14.4854H59.3173V13.6187C59.3173 13.1235 59.1938 12.8759 58.823 12.7521C58.4523 12.5044 57.8344 12.3806 57.4637 12.3806C57.093 12.3806 56.4751 12.3806 55.9808 12.6283ZM53.1386 11.2663C54.3744 10.0283 56.1044 9.78063 57.5873 9.78063C59.0702 9.78063 60.5531 10.0282 61.5417 11.0187C62.6538 12.133 62.7774 13.3711 62.7774 14.733V17.0854H55.6101C55.6101 17.9521 55.7337 18.0759 56.4751 18.4473C56.9694 18.6949 57.7109 18.6949 58.3287 18.6949C59.6881 18.6949 61.0474 18.4473 62.036 18.1997L62.4067 20.7997C60.9238 21.2949 59.4409 21.5425 57.958 21.5425C55.2394 21.5425 52.7679 20.5521 52.0265 17.9521C51.7793 17.2092 51.7793 16.3425 51.7793 15.5997C51.7793 13.8663 51.7793 12.6283 53.1386 11.2663ZM67.2261 14.2378V18.1997C67.7204 18.3235 68.3382 18.3235 68.8325 18.3235C71.304 18.3235 71.4276 17.2092 71.4276 15.2283C71.4276 13.8663 70.9333 12.8759 69.574 12.8759C68.709 12.8759 67.8439 13.2473 67.2261 13.4949V14.2378ZM63.5189 6.31396H67.2261V10.6473C68.3382 10.0283 69.3268 9.90444 70.5626 9.90444C71.7983 9.90444 72.9105 10.2759 73.5284 11.0187C75.0112 12.5044 75.0112 13.9902 75.0112 15.7235C75.0112 19.4378 72.4162 21.4187 68.709 21.4187C67.7204 21.4187 64.2603 21.1711 63.3953 20.9235V6.31396H63.5189ZM100.344 10.0283H104.051V16.8378C104.051 18.1997 104.545 18.4473 105.658 18.4473C106.523 18.4473 107.388 17.8282 108.006 17.4568V10.0283H111.713V18.4473C111.713 19.4378 111.713 20.4283 111.96 21.2949H108.747L108.376 20.1806C106.77 21.1711 105.781 21.5425 104.175 21.5425C100.838 21.5425 100.468 19.4378 100.468 16.714V10.0283H100.344ZM126.047 17.9521V16.714H123.823C122.958 16.714 122.217 16.9616 122.217 17.7044C122.217 18.3235 122.464 18.8187 123.576 18.8187C124.564 18.9425 125.43 18.4473 126.047 17.9521ZM119.127 10.5235C120.857 10.0283 123.082 9.53301 124.935 9.53301C126.295 9.53301 128.148 9.78063 129.013 10.7711C129.878 11.6378 129.878 12.6283 129.878 13.9902C129.878 15.4759 129.755 16.8378 129.755 18.1997C129.755 18.8187 129.755 19.314 129.755 19.933C129.755 20.3044 129.878 21.0473 129.878 21.2949H126.665L126.295 20.1806C125.182 20.9235 123.823 21.5425 122.587 21.5425C119.745 21.5425 118.262 20.6759 118.262 17.8282C118.262 15.1044 120.363 14.114 123.082 14.114C124.194 14.114 125.059 14.114 125.924 14.114V13.6187C125.924 12.6283 125.182 12.5044 123.947 12.5044C122.217 12.5044 120.981 12.8759 119.498 13.2473L119.127 10.5235ZM83.2907 17.9521V16.714H81.0664C80.2014 16.714 79.4599 16.9616 79.4599 17.7044C79.4599 18.3235 79.7071 18.8187 80.8192 18.8187C81.8078 18.9425 82.6729 18.4473 83.2907 17.9521ZM76.4941 10.5235C78.2242 10.0283 80.4485 9.53301 82.3021 9.53301C83.6614 9.53301 85.5151 9.78063 86.3801 10.7711C87.2451 11.6378 87.2451 12.6283 87.2451 13.9902C87.2451 15.4759 87.1215 16.8378 87.1215 18.1997C87.1215 18.8187 87.1215 19.314 87.1215 19.933C87.1215 20.3044 87.2451 21.0473 87.2451 21.2949H84.0322L83.6614 20.1806C82.5493 20.9235 81.19 21.5425 79.9542 21.5425C77.112 21.5425 75.6291 20.6759 75.6291 17.8282C75.6291 15.1044 77.7299 14.114 80.4485 14.114C81.5607 14.114 82.4257 14.114 83.2907 14.114V13.6187C83.2907 12.6283 82.5493 12.5044 81.3135 12.5044C79.5835 12.5044 78.3478 12.8759 76.8649 13.2473L76.4941 10.5235Z" fill="black"/>
<path d="M12.9753 0C5.80799 0 0 5.81905 0 13C0 20.181 5.80799 26 12.9753 26C20.1426 26 25.9506 20.181 25.9506 13C25.9506 5.81905 20.1426 0 12.9753 0ZM21.3783 16.9619L21.0076 15.8476C19.6483 11.7619 15.6939 8.66667 11.1217 8.66667C10.0095 8.66667 9.02091 8.79048 8.03232 9.16191C8.65019 10.5238 9.26806 12.0095 9.26806 13.8667C9.26806 16.7143 8.77377 19.0667 5.93156 19.0667C4.57224 17.4571 3.70722 15.3524 3.70722 13C3.70722 7.92381 7.90875 3.71429 12.9753 3.71429C18.0418 3.71429 22.2433 7.92381 22.2433 13C22.2433 14.4857 21.9962 15.8476 21.3783 16.9619Z" fill="black"/>
</g>
<defs>
<clipPath id="clip0_525_2716">
<rect width="130" height="26" fill="white"/>
</clipPath>
</defs>
</svg>
